<mxfile host="app.diagrams.net" modified="2023-09-24T13:24:54.064Z" agent="Mozilla/5.0 (Windows NT 10.0; Win64; x64) AppleWebKit/537.36 (KHTML, like Gecko) Chrome/117.0.0.0 Safari/537.36" etag="5NUvocxgc-FptR0_d2ug" version="21.8.0" type="device">
  <diagram name="Page-1" id="Ucza6nKKgPsmNaCcUFhT">
    <mxGraphModel dx="4180" dy="1305" grid="1" gridSize="10" guides="1" tooltips="1" connect="1" arrows="1" fold="1" page="1" pageScale="1" pageWidth="850" pageHeight="1100" math="0" shadow="0">
      <root>
        <mxCell id="0" />
        <mxCell id="1" parent="0" />
        <UserObject label="" plantUmlData="{&#xa;  &quot;data&quot;: &quot;@startuml\n!define ENTITY class\n!define INTERFACE interface\n!define ABSTRACT abstract\n\n&#39; Define entities and interfaces\nENTITY User {\n  - userId: int\n  - username: String\n  - password: String\n  - email: String\n  - firstName: String\n  - lastName: String\n  - profilePicture: String\n  - role: Role\n  - goals: List&lt;Goal&gt;\n  + enrollInCourse(course: Course): boolean\n  + submitAssignment(assignment: Assignment): boolean\n  + updateProfile(firstName: String, lastName: String, email: String): boolean\n  + changePassword(newPassword: String): boolean\n  + getAchievements(): List&lt;Achievement&gt; {comment: // Additional idea: User achievements}\n}\n\nENTITY Admin {\n  - adminId: int\n}\n\nENTITY Instructor {\n  - instructorId: int\n  - coursesTaught: List&lt;Course&gt;\n}\n\nENTITY Student {\n  - studentId: int\n  - coursesEnrolled: List&lt;Course&gt;\n}\n\nENTITY Course {\n  - courseId: int\n  - title: String\n  - description: String\n  - instructor: Instructor\n  - enrolledStudents: List&lt;Student&gt;\n  - content: List&lt;Content&gt;\n  - quizzes: List&lt;Quiz&gt;\n  - assignments: List&lt;Assignment&gt;\n  + getGrades(): List&lt;Grade&gt; {comment: // Additional idea: Grading system}\n}\n\nENTITY Assignment {\n  - assignmentId: int\n  - title: String\n  - dueDate: Date\n  + submitSolution(solution: String): boolean {comment: // Additional idea: Submitting solutions}\n}\n\nENTITY Role {\n  - roleId: int\n  - name: String\n}\n\nENTITY Goal {\n  - goalId: int\n  - description: String\n  - rewardPoints: int\n}\n\nENTITY Progress {\n  - progressId: int\n  - user: User\n  - course: Course\n  - completedModules: List&lt;Module&gt;\n}\n\nENTITY Module {\n  - moduleId: int\n  - title: String\n  - content: Content\n}\n\nENTITY Forum {\n  - forumId: int\n  - title: String\n}\n\nENTITY Post {\n  - postId: int\n  - message: String\n  - user: User\n  - forum: Forum\n}\n\nENTITY Report {\n  - reportId: int\n  - user: User\n  - course: Course\n  + generateReport(): void\n}\n\nENTITY Achievement {\n  - achievementId: int\n  - name: String\n  - description: String\n}\n\nENTITY Grade {\n  - gradeId: int\n  - assignment: Assignment\n  - student: Student\n  - score: double\n}\n\n&#39; Define enums\nENUM ContentType {\n  LECTURE\n  VIDEO\n  DOCUMENT\n}\n\nENUM QuestionType {\n  MULTIPLE_CHOICE\n  SHORT_ANSWER\n}\n\n&#39; Define relationships\nUser --|{ Role\nUser --|{ Progress\nUser --|{ Assignment\nUser --|{ Post\nUser --|{ Report\nAdmin --|{ User\nInstructor --|{ User\nStudent --|{ User\nUser --|{ Goal\nCourse --|{ Content\nCourse --|{ Quiz\nCourse --|{ Assignment\nContent --|&gt; ContentType\nQuiz --|&gt; Assignment\nCourse --|&gt; Forum\nUser --|{ Forum\nCourse --|{ Progress\nUser --|{ Progress\nCourse --|{ Module\nForum --|{ Post\nUser --|{ Progress\nQuestion --|{ Quiz\nQuestion --|{ Assignment\n@enduml&quot;,&#xa;  &quot;format&quot;: &quot;svg&quot;&#xa;}" id="0iYB_DxEKI_lf_w69KMY-129">
          <mxCell style="shape=image;noLabel=1;verticalAlign=top;aspect=fixed;imageAspect=0;image=data:image/svg+xml,PD94bWwgdmVyc2lvbj0iMS4wIiBlbmNvZGluZz0idXMtYXNjaWkiIHN0YW5kYWxvbmU9Im5vIj8+PHN2ZyB4bWxucz0iaHR0cDovL3d3dy53My5vcmcvMjAwMC9zdmciIHhtbG5zOnhsaW5rPSJodHRwOi8vd3d3LnczLm9yZy8xOTk5L3hsaW5rIiBjb250ZW50U3R5bGVUeXBlPSJ0ZXh0L2NzcyIgaGVpZ2h0PSI3NzVweCIgcHJlc2VydmVBc3BlY3RSYXRpbz0ibm9uZSIgc3R5bGU9IndpZHRoOjE4NzJweDtoZWlnaHQ6Nzc1cHg7YmFja2dyb3VuZDojRkZGRkZGOyIgdmVyc2lvbj0iMS4xIiB2aWV3Qm94PSIwIDAgMTg3MiA3NzUiIHdpZHRoPSIxODcycHgiIHpvb21BbmRQYW49Im1hZ25pZnkiPjxkZWZzLz48Zz48IS0tY2xhc3MgVXNlci0tPjxnIGlkPSJlbGVtX1VzZXIiPjxyZWN0IGNvZGVMaW5lPSI2IiBmaWxsPSIjRjFGMUYxIiBoZWlnaHQ9IjI1Ny43ODEzIiBpZD0iVXNlciIgcng9IjIuNSIgcnk9IjIuNSIgc3R5bGU9InN0cm9rZTojMTgxODE4O3N0cm9rZS13aWR0aDowLjU7IiB3aWR0aD0iNjMwIiB4PSI5MDQuNSIgeT0iMTc1Ii8+PGVsbGlwc2UgY3g9IjEyMDEuMjUiIGN5PSIxOTEiIGZpbGw9IiNBREQxQjIiIHJ4PSIxMSIgcnk9IjExIiBzdHlsZT0ic3Ryb2tlOiMxODE4MTg7c3Ryb2tlLXdpZHRoOjEuMDsiLz48cGF0aCBkPSJNMTE5OC44NzUsMTk1LjI1IEwxMTk4Ljg3NSwxOTcgTDEyMDMuODEyNSwxOTcgTDEyMDMuODEyNSwxOTUuMjUgTDExOTguODc1LDE5NS4yNSBaIE0xMTk5LjU2MjUsMTk1LjkzNzUgUTExOTkuNTYyNSwxOTUuOTM3NSAxMTk5LjU2MjUsMTg2Ljc1IEwxMTk3LjgxMjUsMTg2Ljc1IFExMTk3LjgxMjUsMTg2Ljc1IDExOTcuODEyNSwxOTUuOTM3NSBMMTE5OS41NjI1LDE5NS45Mzc1IFogTTEyMDMuMTI1LDE5NS45Mzc1IEwxMjA0Ljg3NSwxOTUuOTM3NSBRMTIwNC44NzUsMTk1LjkzNzUgMTIwNC44NzUsMTkzLjEyNSBMMTIwMy4xMjUsMTkzLjEyNSBRMTIwMy4xMjUsMTkzLjEyNSAxMjAzLjEyNSwxOTUuOTM3NSBaIE0xMjAzLjEyNSwxODYuNzUgUTEyMDMuMTI1LDE4Ni43NSAxMjAzLjEyNSwxODkuNTYyNSBMMTIwNC44NzUsMTg5LjU2MjUgUTEyMDQuODc1LDE4OS41NjI1IDEyMDQuODc1LDE4Ni43NSBMMTIwMy4xMjUsMTg2Ljc1IFogTTExOTguODc1LDE4Ny40Mzc1IEwxMjAzLjgxMjUsMTg3LjQzNzUgTDEyMDMuODEyNSwxODUuNjg3NSBMMTE5OC44NzUsMTg1LjY4NzUgTDExOTguODc1LDE4Ny40Mzc1IFogIiBmaWxsPSIjMDAwMDAwIi8+PHRleHQgZmlsbD0iIzAwMDAwMCIgZm9udC1mYW1pbHk9InNhbnMtc2VyaWYiIGZvbnQtc2l6ZT0iMTQiIGxlbmd0aEFkanVzdD0ic3BhY2luZyIgdGV4dExlbmd0aD0iMjgiIHg9IjEyMjEuNzUiIHk9IjE5Ni43NDIyIj5Vc2VyPC90ZXh0PjxsaW5lIHN0eWxlPSJzdHJva2U6IzE4MTgxODtzdHJva2Utd2lkdGg6MC41OyIgeDE9IjkwNS41IiB4Mj0iMTUzMy41IiB5MT0iMjA3IiB5Mj0iMjA3Ii8+PHJlY3QgZmlsbD0ibm9uZSIgaGVpZ2h0PSI2IiBzdHlsZT0ic3Ryb2tlOiNDODI5MzA7c3Ryb2tlLXdpZHRoOjEuMDsiIHdpZHRoPSI2IiB4PSI5MTIuNSIgeT0iMjE2Ljk5MjIiLz48dGV4dCBmaWxsPSIjMDAwMDAwIiBmb250LWZhbWlseT0ic2Fucy1zZXJpZiIgZm9udC1zaXplPSIxNCIgbGVuZ3RoQWRqdXN0PSJzcGFjaW5nIiB0ZXh0TGVuZ3RoPSI3NyIgeD0iOTI0LjUiIHk9IjIyNC4yMzQ0Ij51c2VySWQ6IGludDwvdGV4dD48cmVjdCBmaWxsPSJub25lIiBoZWlnaHQ9IjYiIHN0eWxlPSJzdHJva2U6I0M4MjkzMDtzdHJva2Utd2lkdGg6MS4wOyIgd2lkdGg9IjYiIHg9IjkxMi41IiB5PSIyMzEuOTc2NiIvPjx0ZXh0IGZpbGw9IiMwMDAwMDAiIGZvbnQtZmFtaWx5PSJzYW5zLXNlcmlmIiBmb250LXNpemU9IjE0IiBsZW5ndGhBZGp1c3Q9InNwYWNpbmciIHRleHRMZW5ndGg9IjExMyIgeD0iOTI0LjUiIHk9IjIzOS4yMTg4Ij51c2VybmFtZTogU3RyaW5nPC90ZXh0PjxyZWN0IGZpbGw9Im5vbmUiIGhlaWdodD0iNiIgc3R5bGU9InN0cm9rZTojQzgyOTMwO3N0cm9rZS13aWR0aDoxLjA7IiB3aWR0aD0iNiIgeD0iOTEyLjUiIHk9IjI0Ni45NjA5Ii8+PHRleHQgZmlsbD0iIzAwMDAwMCIgZm9udC1mYW1pbHk9InNhbnMtc2VyaWYiIGZvbnQtc2l6ZT0iMTQiIGxlbmd0aEFkanVzdD0ic3BhY2luZyIgdGV4dExlbmd0aD0iMTEzIiB4PSI5MjQuNSIgeT0iMjU0LjIwMzEiPnBhc3N3b3JkOiBTdHJpbmc8L3RleHQ+PHJlY3QgZmlsbD0ibm9uZSIgaGVpZ2h0PSI2IiBzdHlsZT0ic3Ryb2tlOiNDODI5MzA7c3Ryb2tlLXdpZHRoOjEuMDsiIHdpZHRoPSI2IiB4PSI5MTIuNSIgeT0iMjYxLjk0NTMiLz48dGV4dCBmaWxsPSIjMDAwMDAwIiBmb250LWZhbWlseT0ic2Fucy1zZXJpZiIgZm9udC1zaXplPSIxNCIgbGVuZ3RoQWRqdXN0PSJzcGFjaW5nIiB0ZXh0TGVuZ3RoPSI5MiIgeD0iOTI0LjUiIHk9IjI2OS4xODc1Ij5lbWFpbDogU3RyaW5nPC90ZXh0PjxyZWN0IGZpbGw9Im5vbmUiIGhlaWdodD0iNiIgc3R5bGU9InN0cm9rZTojQzgyOTMwO3N0cm9rZS13aWR0aDoxLjA7IiB3aWR0aD0iNiIgeD0iOTEyLjUiIHk9IjI3Ni45Mjk3Ii8+PHRleHQgZmlsbD0iIzAwMDAwMCIgZm9udC1mYW1pbHk9InNhbnMtc2VyaWYiIGZvbnQtc2l6ZT0iMTQiIGxlbmd0aEFkanVzdD0ic3BhY2luZyIgdGV4dExlbmd0aD0iMTIwIiB4PSI5MjQuNSIgeT0iMjg0LjE3MTkiPmZpcnN0TmFtZTogU3RyaW5nPC90ZXh0PjxyZWN0IGZpbGw9Im5vbmUiIGhlaWdodD0iNiIgc3R5bGU9InN0cm9rZTojQzgyOTMwO3N0cm9rZS13aWR0aDoxLjA7IiB3aWR0aD0iNiIgeD0iOTEyLjUiIHk9IjI5MS45MTQxIi8+PHRleHQgZmlsbD0iIzAwMDAwMCIgZm9udC1mYW1pbHk9InNhbnMtc2VyaWYiIGZvbnQtc2l6ZT0iMTQiIGxlbmd0aEFkanVzdD0ic3BhY2luZyIgdGV4dExlbmd0aD0iMTEzIiB4PSI5MjQuNSIgeT0iMjk5LjE1NjMiPmxhc3ROYW1lOiBTdHJpbmc8L3RleHQ+PHJlY3QgZmlsbD0ibm9uZSIgaGVpZ2h0PSI2IiBzdHlsZT0ic3Ryb2tlOiNDODI5MzA7c3Ryb2tlLXdpZHRoOjEuMDsiIHdpZHRoPSI2IiB4PSI5MTIuNSIgeT0iMzA2Ljg5ODQiLz48dGV4dCBmaWxsPSIjMDAwMDAwIiBmb250LWZhbWlseT0ic2Fucy1zZXJpZiIgZm9udC1zaXplPSIxNCIgbGVuZ3RoQWRqdXN0PSJzcGFjaW5nIiB0ZXh0TGVuZ3RoPSIxNTQiIHg9IjkyNC41IiB5PSIzMTQuMTQwNiI+cHJvZmlsZVBpY3R1cmU6IFN0cmluZzwvdGV4dD48cmVjdCBmaWxsPSJub25lIiBoZWlnaHQ9IjYiIHN0eWxlPSJzdHJva2U6I0M4MjkzMDtzdHJva2Utd2lkdGg6MS4wOyIgd2lkdGg9IjYiIHg9IjkxMi41IiB5PSIzMjEuODgyOCIvPjx0ZXh0IGZpbGw9IiMwMDAwMDAiIGZvbnQtZmFtaWx5PSJzYW5zLXNlcmlmIiBmb250LXNpemU9IjE0IiBsZW5ndGhBZGp1c3Q9InNwYWNpbmciIHRleHRMZW5ndGg9IjcwIiB4PSI5MjQuNSIgeT0iMzI5LjEyNSI+cm9sZTogUm9sZTwvdGV4dD48cmVjdCBmaWxsPSJub25lIiBoZWlnaHQ9IjYiIHN0eWxlPSJzdHJva2U6I0M4MjkzMDtzdHJva2Utd2lkdGg6MS4wOyIgd2lkdGg9IjYiIHg9IjkxMi41IiB5PSIzMzYuODY3MiIvPjx0ZXh0IGZpbGw9IiMwMDAwMDAiIGZvbnQtZmFtaWx5PSJzYW5zLXNlcmlmIiBmb250LXNpemU9IjE0IiBsZW5ndGhBZGp1c3Q9InNwYWNpbmciIHRleHRMZW5ndGg9IjExOSIgeD0iOTI0LjUiIHk9IjM0NC4xMDk0Ij5nb2FsczogTGlzdCZsdDtHb2FsJmd0OzwvdGV4dD48bGluZSBzdHlsZT0ic3Ryb2tlOiMxODE4MTg7c3Ryb2tlLXdpZHRoOjAuNTsiIHgxPSI5MDUuNSIgeDI9IjE1MzMuNSIgeTE9IjM0OS44NTk0IiB5Mj0iMzQ5Ljg1OTQiLz48ZWxsaXBzZSBjeD0iOTE1LjUiIGN5PSIzNjIuODUxNiIgZmlsbD0iIzg0QkU4NCIgcng9IjMiIHJ5PSIzIiBzdHlsZT0ic3Ryb2tlOiMwMzgwNDg7c3Ryb2tlLXdpZHRoOjEuMDsiLz48dGV4dCBmaWxsPSIjMDAwMDAwIiBmb250LWZhbWlseT0ic2Fucy1zZXJpZiIgZm9udC1zaXplPSIxNCIgbGVuZ3RoQWRqdXN0PSJzcGFjaW5nIiB0ZXh0TGVuZ3RoPSIyNzUiIHg9IjkyNC41IiB5PSIzNjcuMDkzOCI+ZW5yb2xsSW5Db3Vyc2UoY291cnNlOiBDb3Vyc2UpOiBib29sZWFuPC90ZXh0PjxlbGxpcHNlIGN4PSI5MTUuNSIgY3k9IjM3Ny44MzU5IiBmaWxsPSIjODRCRTg0IiByeD0iMyIgcnk9IjMiIHN0eWxlPSJzdHJva2U6IzAzODA0ODtzdHJva2Utd2lkdGg6MS4wOyIvPjx0ZXh0IGZpbGw9IiMwMDAwMDAiIGZvbnQtZmFtaWx5PSJzYW5zLXNlcmlmIiBmb250LXNpemU9IjE0IiBsZW5ndGhBZGp1c3Q9InNwYWNpbmciIHRleHRMZW5ndGg9IjM0OSIgeD0iOTI0LjUiIHk9IjM4Mi4wNzgxIj5zdWJtaXRBc3NpZ25tZW50KGFzc2lnbm1lbnQ6IEFzc2lnbm1lbnQpOiBib29sZWFuPC90ZXh0PjxlbGxpcHNlIGN4PSI5MTUuNSIgY3k9IjM5Mi44MjAzIiBmaWxsPSIjODRCRTg0IiByeD0iMyIgcnk9IjMiIHN0eWxlPSJzdHJva2U6IzAzODA0ODtzdHJva2Utd2lkdGg6MS4wOyIvPjx0ZXh0IGZpbGw9IiMwMDAwMDAiIGZvbnQtZmFtaWx5PSJzYW5zLXNlcmlmIiBmb250LXNpemU9IjE0IiBsZW5ndGhBZGp1c3Q9InNwYWNpbmciIHRleHRMZW5ndGg9IjUyMyIgeD0iOTI0LjUiIHk9IjM5Ny4wNjI1Ij51cGRhdGVQcm9maWxlKGZpcnN0TmFtZTogU3RyaW5nLCBsYXN0TmFtZTogU3RyaW5nLCBlbWFpbDogU3RyaW5nKTogYm9vbGVhbjwvdGV4dD48ZWxsaXBzZSBjeD0iOTE1LjUiIGN5PSI0MDcuODA0NyIgZmlsbD0iIzg0QkU4NCIgcng9IjMiIHJ5PSIzIiBzdHlsZT0ic3Ryb2tlOiMwMzgwNDg7c3Ryb2tlLXdpZHRoOjEuMDsiLz48dGV4dCBmaWxsPSIjMDAwMDAwIiBmb250LWZhbWlseT0ic2Fucy1zZXJpZiIgZm9udC1zaXplPSIxNCIgbGVuZ3RoQWRqdXN0PSJzcGFjaW5nIiB0ZXh0TGVuZ3RoPSIzMTMiIHg9IjkyNC41IiB5PSI0MTIuMDQ2OSI+Y2hhbmdlUGFzc3dvcmQobmV3UGFzc3dvcmQ6IFN0cmluZyk6IGJvb2xlYW48L3RleHQ+PGVsbGlwc2UgY3g9IjkxNS41IiBjeT0iNDIyLjc4OTEiIGZpbGw9IiM4NEJFODQiIHJ4PSIzIiByeT0iMyIgc3R5bGU9InN0cm9rZTojMDM4MDQ4O3N0cm9rZS13aWR0aDoxLjA7Ii8+PHRleHQgZmlsbD0iIzAwMDAwMCIgZm9udC1mYW1pbHk9InNhbnMtc2VyaWYiIGZvbnQtc2l6ZT0iMTQiIGxlbmd0aEFkanVzdD0ic3BhY2luZyIgdGV4dExlbmd0aD0iNjA0IiB4PSI5MjQuNSIgeT0iNDI3LjAzMTMiPmdldEFjaGlldmVtZW50cygpOiBMaXN0Jmx0O0FjaGlldmVtZW50Jmd0OyB7Y29tbWVudDogLy8gQWRkaXRpb25hbCBpZGVhOiBVc2VyIGFjaGlldmVtZW50c308L3RleHQ+PC9nPjwhLS1jbGFzcyBBZG1pbi0tPjxnIGlkPSJlbGVtX0FkbWluIj48cmVjdCBjb2RlTGluZT0iMjMiIGZpbGw9IiNGMUYxRjEiIGhlaWdodD0iNjIuOTg0NCIgaWQ9IkFkbWluIiByeD0iMi41IiByeT0iMi41IiBzdHlsZT0ic3Ryb2tlOiMxODE4MTg7c3Ryb2tlLXdpZHRoOjAuNTsiIHdpZHRoPSIxMTEiIHg9Ijk2NiIgeT0iMjkuNSIvPjxlbGxpcHNlIGN4PSIxMDAwLjM1IiBjeT0iNDUuNSIgZmlsbD0iI0FERDFCMiIgcng9IjExIiByeT0iMTEiIHN0eWxlPSJzdHJva2U6IzE4MTgxODtzdHJva2Utd2lkdGg6MS4wOyIvPjxwYXRoIGQ9Ik05OTcuOTc1LDQ5Ljc1IEw5OTcuOTc1LDUxLjUgTDEwMDIuOTEyNSw1MS41IEwxMDAyLjkxMjUsNDkuNzUgTDk5Ny45NzUsNDkuNzUgWiBNOTk4LjY2MjUsNTAuNDM3NSBROTk4LjY2MjUsNTAuNDM3NSA5OTguNjYyNSw0MS4yNSBMOTk2LjkxMjUsNDEuMjUgUTk5Ni45MTI1LDQxLjI1IDk5Ni45MTI1LDUwLjQzNzUgTDk5OC42NjI1LDUwLjQzNzUgWiBNMTAwMi4yMjUsNTAuNDM3NSBMMTAwMy45NzUsNTAuNDM3NSBRMTAwMy45NzUsNTAuNDM3NSAxMDAzLjk3NSw0Ny42MjUgTDEwMDIuMjI1LDQ3LjYyNSBRMTAwMi4yMjUsNDcuNjI1IDEwMDIuMjI1LDUwLjQzNzUgWiBNMTAwMi4yMjUsNDEuMjUgUTEwMDIuMjI1LDQxLjI1IDEwMDIuMjI1LDQ0LjA2MjUgTDEwMDMuOTc1LDQ0LjA2MjUgUTEwMDMuOTc1LDQ0LjA2MjUgMTAwMy45NzUsNDEuMjUgTDEwMDIuMjI1LDQxLjI1IFogTTk5Ny45NzUsNDEuOTM3NSBMMTAwMi45MTI1LDQxLjkzNzUgTDEwMDIuOTEyNSw0MC4xODc1IEw5OTcuOTc1LDQwLjE4NzUgTDk5Ny45NzUsNDEuOTM3NSBaICIgZmlsbD0iIzAwMDAwMCIvPjx0ZXh0IGZpbGw9IiMwMDAwMDAiIGZvbnQtZmFtaWx5PSJzYW5zLXNlcmlmIiBmb250LXNpemU9IjE0IiBsZW5ndGhBZGp1c3Q9InNwYWNpbmciIHRleHRMZW5ndGg9IjM2IiB4PSIxMDE4LjY1IiB5PSI1MS4yNDIyIj5BZG1pbjwvdGV4dD48bGluZSBzdHlsZT0ic3Ryb2tlOiMxODE4MTg7c3Ryb2tlLXdpZHRoOjAuNTsiIHgxPSI5NjciIHgyPSIxMDc2IiB5MT0iNjEuNSIgeTI9IjYxLjUiLz48cmVjdCBmaWxsPSJub25lIiBoZWlnaHQ9IjYiIHN0eWxlPSJzdHJva2U6I0M4MjkzMDtzdHJva2Utd2lkdGg6MS4wOyIgd2lkdGg9IjYiIHg9Ijk3NCIgeT0iNzEuNDkyMiIvPjx0ZXh0IGZpbGw9IiMwMDAwMDAiIGZvbnQtZmFtaWx5PSJzYW5zLXNlcmlmIiBmb250LXNpemU9IjE0IiBsZW5ndGhBZGp1c3Q9InNwYWNpbmciIHRleHRMZW5ndGg9Ijg1IiB4PSI5ODYiIHk9Ijc4LjczNDQiPmFkbWluSWQ6IGludDwvdGV4dD48bGluZSBzdHlsZT0ic3Ryb2tlOiMxODE4MTg7c3Ryb2tlLXdpZHRoOjAuNTsiIHgxPSI5NjciIHgyPSIxMDc2IiB5MT0iODQuNDg0NCIgeTI9Ijg0LjQ4NDQiLz48L2c+PCEtLWNsYXNzIEluc3RydWN0b3ItLT48ZyBpZD0iZWxlbV9JbnN0cnVjdG9yIj48cmVjdCBjb2RlTGluZT0iMjciIGZpbGw9IiNGMUYxRjEiIGhlaWdodD0iNzcuOTY4OCIgaWQ9Ikluc3RydWN0b3IiIHJ4PSIyLjUiIHJ5PSIyLjUiIHN0eWxlPSJzdHJva2U6IzE4MTgxODtzdHJva2Utd2lkdGg6MC41OyIgd2lkdGg9IjIxNSIgeD0iMTExMiIgeT0iMjIiLz48ZWxsaXBzZSBjeD0iMTE4MC4yNSIgY3k9IjM4IiBmaWxsPSIjQUREMUIyIiByeD0iMTEiIHJ5PSIxMSIgc3R5bGU9InN0cm9rZTojMTgxODE4O3N0cm9rZS13aWR0aDoxLjA7Ii8+PHBhdGggZD0iTTExNzcuODc1LDQyLjI1IEwxMTc3Ljg3NSw0NCBMMTE4Mi44MTI1LDQ0IEwxMTgyLjgxMjUsNDIuMjUgTDExNzcuODc1LDQyLjI1IFogTTExNzguNTYyNSw0Mi45Mzc1IFExMTc4LjU2MjUsNDIuOTM3NSAxMTc4LjU2MjUsMzMuNzUgTDExNzYuODEyNSwzMy43NSBRMTE3Ni44MTI1LDMzLjc1IDExNzYuODEyNSw0Mi45Mzc1IEwxMTc4LjU2MjUsNDIuOTM3NSBaIE0xMTgyLjEyNSw0Mi45Mzc1IEwxMTgzLjg3NSw0Mi45Mzc1IFExMTgzLjg3NSw0Mi45Mzc1IDExODMuODc1LDQwLjEyNSBMMTE4Mi4xMjUsNDAuMTI1IFExMTgyLjEyNSw0MC4xMjUgMTE4Mi4xMjUsNDIuOTM3NSBaIE0xMTgyLjEyNSwzMy43NSBRMTE4Mi4xMjUsMzMuNzUgMTE4Mi4xMjUsMzYuNTYyNSBMMTE4My44NzUsMzYuNTYyNSBRMTE4My44NzUsMzYuNTYyNSAxMTgzLjg3NSwzMy43NSBMMTE4Mi4xMjUsMzMuNzUgWiBNMTE3Ny44NzUsMzQuNDM3NSBMMTE4Mi44MTI1LDM0LjQzNzUgTDExODIuODEyNSwzMi42ODc1IEwxMTc3Ljg3NSwzMi42ODc1IEwxMTc3Ljg3NSwzNC40Mzc1IFogIiBmaWxsPSIjMDAwMDAwIi8+PHRleHQgZmlsbD0iIzAwMDAwMCIgZm9udC1mYW1pbHk9InNhbnMtc2VyaWYiIGZvbnQtc2l6ZT0iMTQiIGxlbmd0aEFkanVzdD0ic3BhY2luZyIgdGV4dExlbmd0aD0iNzAiIHg9IjEyMDAuNzUiIHk9IjQzLjc0MjIiPkluc3RydWN0b3I8L3RleHQ+PGxpbmUgc3R5bGU9InN0cm9rZTojMTgxODE4O3N0cm9rZS13aWR0aDowLjU7IiB4MT0iMTExMyIgeDI9IjEzMjYiIHkxPSI1NCIgeTI9IjU0Ii8+PHJlY3QgZmlsbD0ibm9uZSIgaGVpZ2h0PSI2IiBzdHlsZT0ic3Ryb2tlOiNDODI5MzA7c3Ryb2tlLXdpZHRoOjEuMDsiIHdpZHRoPSI2IiB4PSIxMTIwIiB5PSI2My45OTIyIi8+PHRleHQgZmlsbD0iIzAwMDAwMCIgZm9udC1mYW1pbHk9InNhbnMtc2VyaWYiIGZvbnQtc2l6ZT0iMTQiIGxlbmd0aEFkanVzdD0ic3BhY2luZyIgdGV4dExlbmd0aD0iMTE5IiB4PSIxMTMyIiB5PSI3MS4yMzQ0Ij5pbnN0cnVjdG9ySWQ6IGludDwvdGV4dD48cmVjdCBmaWxsPSJub25lIiBoZWlnaHQ9IjYiIHN0eWxlPSJzdHJva2U6I0M4MjkzMDtzdHJva2Utd2lkdGg6MS4wOyIgd2lkdGg9IjYiIHg9IjExMjAiIHk9Ijc4Ljk3NjYiLz48dGV4dCBmaWxsPSIjMDAwMDAwIiBmb250LWZhbWlseT0ic2Fucy1zZXJpZiIgZm9udC1zaXplPSIxNCIgbGVuZ3RoQWRqdXN0PSJzcGFjaW5nIiB0ZXh0TGVuZ3RoPSIxODkiIHg9IjExMzIiIHk9Ijg2LjIxODgiPmNvdXJzZXNUYXVnaHQ6IExpc3QmbHQ7Q291cnNlJmd0OzwvdGV4dD48bGluZSBzdHlsZT0ic3Ryb2tlOiMxODE4MTg7c3Ryb2tlLXdpZHRoOjAuNTsiIHgxPSIxMTEzIiB4Mj0iMTMyNiIgeTE9IjkxLjk2ODgiIHkyPSI5MS45Njg4Ii8+PC9nPjwhLS1jbGFzcyBTdHVkZW50LS0+PGcgaWQ9ImVsZW1fU3R1ZGVudCI+PHJlY3QgY29kZUxpbmU9IjMyIiBmaWxsPSIjRjFGMUYxIiBoZWlnaHQ9Ijc3Ljk2ODgiIGlkPSJTdHVkZW50IiByeD0iMi41IiByeT0iMi41IiBzdHlsZT0ic3Ryb2tlOiMxODE4MTg7c3Ryb2tlLXdpZHRoOjAuNTsiIHdpZHRoPSIyMjkiIHg9IjEzNjIiIHk9IjIyIi8+PGVsbGlwc2UgY3g9IjE0NDcuNzUiIGN5PSIzOCIgZmlsbD0iI0FERDFCMiIgcng9IjExIiByeT0iMTEiIHN0eWxlPSJzdHJva2U6IzE4MTgxODtzdHJva2Utd2lkdGg6MS4wOyIvPjxwYXRoIGQ9Ik0xNDQ1LjM3NSw0Mi4yNSBMMTQ0NS4zNzUsNDQgTDE0NTAuMzEyNSw0NCBMMTQ1MC4zMTI1LDQyLjI1IEwxNDQ1LjM3NSw0Mi4yNSBaIE0xNDQ2LjA2MjUsNDIuOTM3NSBRMTQ0Ni4wNjI1LDQyLjkzNzUgMTQ0Ni4wNjI1LDMzLjc1IEwxNDQ0LjMxMjUsMzMuNzUgUTE0NDQuMzEyNSwzMy43NSAxNDQ0LjMxMjUsNDIuOTM3NSBMMTQ0Ni4wNjI1LDQyLjkzNzUgWiBNMTQ0OS42MjUsNDIuOTM3NSBMMTQ1MS4zNzUsNDIuOTM3NSBRMTQ1MS4zNzUsNDIuOTM3NSAxNDUxLjM3NSw0MC4xMjUgTDE0NDkuNjI1LDQwLjEyNSBRMTQ0OS42MjUsNDAuMTI1IDE0NDkuNjI1LDQyLjkzNzUgWiBNMTQ0OS42MjUsMzMuNzUgUTE0NDkuNjI1LDMzLjc1IDE0NDkuNjI1LDM2LjU2MjUgTDE0NTEuMzc1LDM2LjU2MjUgUTE0NTEuMzc1LDM2LjU2MjUgMTQ1MS4zNzUsMzMuNzUgTDE0NDkuNjI1LDMzLjc1IFogTTE0NDUuMzc1LDM0LjQzNzUgTDE0NTAuMzEyNSwzNC40Mzc1IEwxNDUwLjMxMjUsMzIuNjg3NSBMMTQ0NS4zNzUsMzIuNjg3NSBMMTQ0NS4zNzUsMzQuNDM3NSBaICIgZmlsbD0iIzAwMDAwMCIvPjx0ZXh0IGZpbGw9IiMwMDAwMDAiIGZvbnQtZmFtaWx5PSJzYW5zLXNlcmlmIiBmb250LXNpemU9IjE0IiBsZW5ndGhBZGp1c3Q9InNwYWNpbmciIHRleHRMZW5ndGg9IjQ5IiB4PSIxNDY4LjI1IiB5PSI0My43NDIyIj5TdHVkZW50PC90ZXh0PjxsaW5lIHN0eWxlPSJzdHJva2U6IzE4MTgxODtzdHJva2Utd2lkdGg6MC41OyIgeDE9IjEzNjMiIHgyPSIxNTkwIiB5MT0iNTQiIHkyPSI1NCIvPjxyZWN0IGZpbGw9Im5vbmUiIGhlaWdodD0iNiIgc3R5bGU9InN0cm9rZTojQzgyOTMwO3N0cm9rZS13aWR0aDoxLjA7IiB3aWR0aD0iNiIgeD0iMTM3MCIgeT0iNjMuOTkyMiIvPjx0ZXh0IGZpbGw9IiMwMDAwMDAiIGZvbnQtZmFtaWx5PSJzYW5zLXNlcmlmIiBmb250LXNpemU9IjE0IiBsZW5ndGhBZGp1c3Q9InNwYWNpbmciIHRleHRMZW5ndGg9Ijk4IiB4PSIxMzgyIiB5PSI3MS4yMzQ0Ij5zdHVkZW50SWQ6IGludDwvdGV4dD48cmVjdCBmaWxsPSJub25lIiBoZWlnaHQ9IjYiIHN0eWxlPSJzdHJva2U6I0M4MjkzMDtzdHJva2Utd2lkdGg6MS4wOyIgd2lkdGg9IjYiIHg9IjEzNzAiIHk9Ijc4Ljk3NjYiLz48dGV4dCBmaWxsPSIjMDAwMDAwIiBmb250LWZhbWlseT0ic2Fucy1zZXJpZiIgZm9udC1zaXplPSIxNCIgbGVuZ3RoQWRqdXN0PSJzcGFjaW5nIiB0ZXh0TGVuZ3RoPSIyMDMiIHg9IjEzODIiIHk9Ijg2LjIxODgiPmNvdXJzZXNFbnJvbGxlZDogTGlzdCZsdDtDb3Vyc2UmZ3Q7PC90ZXh0PjxsaW5lIHN0eWxlPSJzdHJva2U6IzE4MTgxODtzdHJva2Utd2lkdGg6MC41OyIgeDE9IjEzNjMiIHgyPSIxNTkwIiB5MT0iOTEuOTY4OCIgeTI9IjkxLjk2ODgiLz48L2c+PCEtLWNsYXNzIENvdXJzZS0tPjxnIGlkPSJlbGVtX0NvdXJzZSI+PHJlY3QgY29kZUxpbmU9IjM3IiBmaWxsPSIjRjFGMUYxIiBoZWlnaHQ9IjE4Mi44NTk0IiBpZD0iQ291cnNlIiByeD0iMi41IiByeT0iMi41IiBzdHlsZT0ic3Ryb2tlOiMxODE4MTg7c3Ryb2tlLXdpZHRoOjAuNTsiIHdpZHRoPSI1MjMiIHg9IjM0NiIgeT0iMjEyLjUiLz48ZWxsaXBzZSBjeD0iNTgyLjI1IiBjeT0iMjI4LjUiIGZpbGw9IiNBREQxQjIiIHJ4PSIxMSIgcnk9IjExIiBzdHlsZT0ic3Ryb2tlOiMxODE4MTg7c3Ryb2tlLXdpZHRoOjEuMDsiLz48cGF0aCBkPSJNNTc5Ljg3NSwyMzIuNzUgTDU3OS44NzUsMjM0LjUgTDU4NC44MTI1LDIzNC41IEw1ODQuODEyNSwyMzIuNzUgTDU3OS44NzUsMjMyLjc1IFogTTU4MC41NjI1LDIzMy40Mzc1IFE1ODAuNTYyNSwyMzMuNDM3NSA1ODAuNTYyNSwyMjQuMjUgTDU3OC44MTI1LDIyNC4yNSBRNTc4LjgxMjUsMjI0LjI1IDU3OC44MTI1LDIzMy40Mzc1IEw1ODAuNTYyNSwyMzMuNDM3NSBaIE01ODQuMTI1LDIzMy40Mzc1IEw1ODUuODc1LDIzMy40Mzc1IFE1ODUuODc1LDIzMy40Mzc1IDU4NS44NzUsMjMwLjYyNSBMNTg0LjEyNSwyMzAuNjI1IFE1ODQuMTI1LDIzMC42MjUgNTg0LjEyNSwyMzMuNDM3NSBaIE01ODQuMTI1LDIyNC4yNSBRNTg0LjEyNSwyMjQuMjUgNTg0LjEyNSwyMjcuMDYyNSBMNTg1Ljg3NSwyMjcuMDYyNSBRNTg1Ljg3NSwyMjcuMDYyNSA1ODUuODc1LDIyNC4yNSBMNTg0LjEyNSwyMjQuMjUgWiBNNTc5Ljg3NSwyMjQuOTM3NSBMNTg0LjgxMjUsMjI0LjkzNzUgTDU4NC44MTI1LDIyMy4xODc1IEw1NzkuODc1LDIyMy4xODc1IEw1NzkuODc1LDIyNC45Mzc1IFogIiBmaWxsPSIjMDAwMDAwIi8+PHRleHQgZmlsbD0iIzAwMDAwMCIgZm9udC1mYW1pbHk9InNhbnMtc2VyaWYiIGZvbnQtc2l6ZT0iMTQiIGxlbmd0aEFkanVzdD0ic3BhY2luZyIgdGV4dExlbmd0aD0iNDIiIHg9IjYwMi43NSIgeT0iMjM0LjI0MjIiPkNvdXJzZTwvdGV4dD48bGluZSBzdHlsZT0ic3Ryb2tlOiMxODE4MTg7c3Ryb2tlLXdpZHRoOjAuNTsiIHgxPSIzNDciIHgyPSI4NjgiIHkxPSIyNDQuNSIgeTI9IjI0NC41Ii8+PHJlY3QgZmlsbD0ibm9uZSIgaGVpZ2h0PSI2IiBzdHlsZT0ic3Ryb2tlOiNDODI5MzA7c3Ryb2tlLXdpZHRoOjEuMDsiIHdpZHRoPSI2IiB4PSIzNTQiIHk9IjI1NC40OTIyIi8+PHRleHQgZmlsbD0iIzAwMDAwMCIgZm9udC1mYW1pbHk9InNhbnMtc2VyaWYiIGZvbnQtc2l6ZT0iMTQiIGxlbmd0aEFkanVzdD0ic3BhY2luZyIgdGV4dExlbmd0aD0iOTEiIHg9IjM2NiIgeT0iMjYxLjczNDQiPmNvdXJzZUlkOiBpbnQ8L3RleHQ+PHJlY3QgZmlsbD0ibm9uZSIgaGVpZ2h0PSI2IiBzdHlsZT0ic3Ryb2tlOiNDODI5MzA7c3Ryb2tlLXdpZHRoOjEuMDsiIHdpZHRoPSI2IiB4PSIzNTQiIHk9IjI2OS40NzY2Ii8+PHRleHQgZmlsbD0iIzAwMDAwMCIgZm9udC1mYW1pbHk9InNhbnMtc2VyaWYiIGZvbnQtc2l6ZT0iMTQiIGxlbmd0aEFkanVzdD0ic3BhY2luZyIgdGV4dExlbmd0aD0iOTEiIHg9IjM2NiIgeT0iMjc2LjcxODgiPnRpdGxlOiBTdHJpbmc8L3RleHQ+PHJlY3QgZmlsbD0ibm9uZSIgaGVpZ2h0PSI2IiBzdHlsZT0ic3Ryb2tlOiNDODI5MzA7c3Ryb2tlLXdpZHRoOjEuMDsiIHdpZHRoPSI2IiB4PSIzNTQiIHk9IjI4NC40NjA5Ii8+PHRleHQgZmlsbD0iIzAwMDAwMCIgZm9udC1mYW1pbHk9InNhbnMtc2VyaWYiIGZvbnQtc2l6ZT0iMTQiIGxlbmd0aEFkanVzdD0ic3BhY2luZyIgdGV4dExlbmd0aD0iMTMzIiB4PSIzNjYiIHk9IjI5MS43MDMxIj5kZXNjcmlwdGlvbjogU3RyaW5nPC90ZXh0PjxyZWN0IGZpbGw9Im5vbmUiIGhlaWdodD0iNiIgc3R5bGU9InN0cm9rZTojQzgyOTMwO3N0cm9rZS13aWR0aDoxLjA7IiB3aWR0aD0iNiIgeD0iMzU0IiB5PSIyOTkuNDQ1MyIvPjx0ZXh0IGZpbGw9IiMwMDAwMDAiIGZvbnQtZmFtaWx5PSJzYW5zLXNlcmlmIiBmb250LXNpemU9IjE0IiBsZW5ndGhBZGp1c3Q9InNwYWNpbmciIHRleHRMZW5ndGg9IjE1NCIgeD0iMzY2IiB5PSIzMDYuNjg3NSI+aW5zdHJ1Y3RvcjogSW5zdHJ1Y3RvcjwvdGV4dD48cmVjdCBmaWxsPSJub25lIiBoZWlnaHQ9IjYiIHN0eWxlPSJzdHJva2U6I0M4MjkzMDtzdHJva2Utd2lkdGg6MS4wOyIgd2lkdGg9IjYiIHg9IjM1NCIgeT0iMzE0LjQyOTciLz48dGV4dCBmaWxsPSIjMDAwMDAwIiBmb250LWZhbWlseT0ic2Fucy1zZXJpZiIgZm9udC1zaXplPSIxNCIgbGVuZ3RoQWRqdXN0PSJzcGFjaW5nIiB0ZXh0TGVuZ3RoPSIyMTciIHg9IjM2NiIgeT0iMzIxLjY3MTkiPmVucm9sbGVkU3R1ZGVudHM6IExpc3QmbHQ7U3R1ZGVudCZndDs8L3RleHQ+PHJlY3QgZmlsbD0ibm9uZSIgaGVpZ2h0PSI2IiBzdHlsZT0ic3Ryb2tlOiNDODI5MzA7c3Ryb2tlLXdpZHRoOjEuMDsiIHdpZHRoPSI2IiB4PSIzNTQiIHk9IjMyOS40MTQxIi8+PHRleHQgZmlsbD0iIzAwMDAwMCIgZm9udC1mYW1pbHk9InNhbnMtc2VyaWYiIGZvbnQtc2l6ZT0iMTQiIGxlbmd0aEFkanVzdD0ic3BhY2luZyIgdGV4dExlbmd0aD0iMTU0IiB4PSIzNjYiIHk9IjMzNi42NTYzIj5jb250ZW50OiBMaXN0Jmx0O0NvbnRlbnQmZ3Q7PC90ZXh0PjxyZWN0IGZpbGw9Im5vbmUiIGhlaWdodD0iNiIgc3R5bGU9InN0cm9rZTojQzgyOTMwO3N0cm9rZS13aWR0aDoxLjA7IiB3aWR0aD0iNiIgeD0iMzU0IiB5PSIzNDQuMzk4NCIvPjx0ZXh0IGZpbGw9IiMwMDAwMDAiIGZvbnQtZmFtaWx5PSJzYW5zLXNlcmlmIiBmb250LXNpemU9IjE0IiBsZW5ndGhBZGp1c3Q9InNwYWNpbmciIHRleHRMZW5ndGg9IjEzMyIgeD0iMzY2IiB5PSIzNTEuNjQwNiI+cXVpenplczogTGlzdCZsdDtRdWl6Jmd0OzwvdGV4dD48cmVjdCBmaWxsPSJub25lIiBoZWlnaHQ9IjYiIHN0eWxlPSJzdHJva2U6I0M4MjkzMDtzdHJva2Utd2lkdGg6MS4wOyIgd2lkdGg9IjYiIHg9IjM1NCIgeT0iMzU5LjM4MjgiLz48dGV4dCBmaWxsPSIjMDAwMDAwIiBmb250LWZhbWlseT0ic2Fucy1zZXJpZiIgZm9udC1zaXplPSIxNCIgbGVuZ3RoQWRqdXN0PSJzcGFjaW5nIiB0ZXh0TGVuZ3RoPSIyMDUiIHg9IjM2NiIgeT0iMzY2LjYyNSI+YXNzaWdubWVudHM6IExpc3QmbHQ7QXNzaWdubWVudCZndDs8L3RleHQ+PGxpbmUgc3R5bGU9InN0cm9rZTojMTgxODE4O3N0cm9rZS13aWR0aDowLjU7IiB4MT0iMzQ3IiB4Mj0iODY4IiB5MT0iMzcyLjM3NSIgeTI9IjM3Mi4zNzUiLz48ZWxsaXBzZSBjeD0iMzU3IiBjeT0iMzg1LjM2NzIiIGZpbGw9IiM4NEJFODQiIHJ4PSIzIiByeT0iMyIgc3R5bGU9InN0cm9rZTojMDM4MDQ4O3N0cm9rZS13aWR0aDoxLjA7Ii8+PHRleHQgZmlsbD0iIzAwMDAwMCIgZm9udC1mYW1pbHk9InNhbnMtc2VyaWYiIGZvbnQtc2l6ZT0iMTQiIGxlbmd0aEFkanVzdD0ic3BhY2luZyIgdGV4dExlbmd0aD0iNDk3IiB4PSIzNjYiIHk9IjM4OS42MDk0Ij5nZXRHcmFkZXMoKTogTGlzdCZsdDtHcmFkZSZndDsge2NvbW1lbnQ6IC8vIEFkZGl0aW9uYWwgaWRlYTogR3JhZGluZyBzeXN0ZW19PC90ZXh0PjwvZz48IS0tY2xhc3MgQXNzaWdubWVudC0tPjxnIGlkPSJlbGVtX0Fzc2lnbm1lbnQiPjxyZWN0IGNvZGVMaW5lPSI0OSIgZmlsbD0iI0YxRjFGMSIgaGVpZ2h0PSIxMDcuOTM3NSIgaWQ9IkFzc2lnbm1lbnQiIHJ4PSIyLjUiIHJ5PSIyLjUiIHN0eWxlPSJzdHJva2U6IzE4MTgxODtzdHJva2Utd2lkdGg6MC41OyIgd2lkdGg9IjY4NSIgeD0iNyIgeT0iNjYxIi8+PGVsbGlwc2UgY3g9IjMwOS43NSIgY3k9IjY3NyIgZmlsbD0iI0FERDFCMiIgcng9IjExIiByeT0iMTEiIHN0eWxlPSJzdHJva2U6IzE4MTgxODtzdHJva2Utd2lkdGg6MS4wOyIvPjxwYXRoIGQ9Ik0zMDcuMzc1LDY4MS4yNSBMMzA3LjM3NSw2ODMgTDMxMi4zMTI1LDY4MyBMMzEyLjMxMjUsNjgxLjI1IEwzMDcuMzc1LDY4MS4yNSBaIE0zMDguMDYyNSw2ODEuOTM3NSBRMzA4LjA2MjUsNjgxLjkzNzUgMzA4LjA2MjUsNjcyLjc1IEwzMDYuMzEyNSw2NzIuNzUgUTMwNi4zMTI1LDY3Mi43NSAzMDYuMzEyNSw2ODEuOTM3NSBMMzA4LjA2MjUsNjgxLjkzNzUgWiBNMzExLjYyNSw2ODEuOTM3NSBMMzEzLjM3NSw2ODEuOTM3NSBRMzEzLjM3NSw2ODEuOTM3NSAzMTMuMzc1LDY3OS4xMjUgTDMxMS42MjUsNjc5LjEyNSBRMzExLjYyNSw2NzkuMTI1IDMxMS42MjUsNjgxLjkzNzUgWiBNMzExLjYyNSw2NzIuNzUgUTMxMS42MjUsNjcyLjc1IDMxMS42MjUsNjc1LjU2MjUgTDMxMy4zNzUsNjc1LjU2MjUgUTMxMy4zNzUsNjc1LjU2MjUgMzEzLjM3NSw2NzIuNzUgTDMxMS42MjUsNjcyLjc1IFogTTMwNy4zNzUsNjczLjQzNzUgTDMxMi4zMTI1LDY3My40Mzc1IEwzMTIuMzEyNSw2NzEuNjg3NSBMMzA3LjM3NSw2NzEuNjg3NSBMMzA3LjM3NSw2NzMuNDM3NSBaICIgZmlsbD0iIzAwMDAwMCIvPjx0ZXh0IGZpbGw9IiMwMDAwMDAiIGZvbnQtZmFtaWx5PSJzYW5zLXNlcmlmIiBmb250LXNpemU9IjE0IiBsZW5ndGhBZGp1c3Q9InNwYWNpbmciIHRleHRMZW5ndGg9IjcxIiB4PSIzMzAuMjUiIHk9IjY4Mi43NDIyIj5Bc3NpZ25tZW50PC90ZXh0PjxsaW5lIHN0eWxlPSJzdHJva2U6IzE4MTgxODtzdHJva2Utd2lkdGg6MC41OyIgeDE9IjgiIHgyPSI2OTEiIHkxPSI2OTMiIHkyPSI2OTMiLz48cmVjdCBmaWxsPSJub25lIiBoZWlnaHQ9IjYiIHN0eWxlPSJzdHJva2U6I0M4MjkzMDtzdHJva2Utd2lkdGg6MS4wOyIgd2lkdGg9IjYiIHg9IjE1IiB5PSI3MDIuOTkyMiIvPjx0ZXh0IGZpbGw9IiMwMDAwMDAiIGZvbnQtZmFtaWx5PSJzYW5zLXNlcmlmIiBmb250LXNpemU9IjE0IiBsZW5ndGhBZGp1c3Q9InNwYWNpbmciIHRleHRMZW5ndGg9IjEyMCIgeD0iMjciIHk9IjcxMC4yMzQ0Ij5hc3NpZ25tZW50SWQ6IGludDwvdGV4dD48cmVjdCBmaWxsPSJub25lIiBoZWlnaHQ9IjYiIHN0eWxlPSJzdHJva2U6I0M4MjkzMDtzdHJva2Utd2lkdGg6MS4wOyIgd2lkdGg9IjYiIHg9IjE1IiB5PSI3MTcuOTc2NiIvPjx0ZXh0IGZpbGw9IiMwMDAwMDAiIGZvbnQtZmFtaWx5PSJzYW5zLXNlcmlmIiBmb250LXNpemU9IjE0IiBsZW5ndGhBZGp1c3Q9InNwYWNpbmciIHRleHRMZW5ndGg9IjkxIiB4PSIyNyIgeT0iNzI1LjIxODgiPnRpdGxlOiBTdHJpbmc8L3RleHQ+PHJlY3QgZmlsbD0ibm9uZSIgaGVpZ2h0PSI2IiBzdHlsZT0ic3Ryb2tlOiNDODI5MzA7c3Ryb2tlLXdpZHRoOjEuMDsiIHdpZHRoPSI2IiB4PSIxNSIgeT0iNzMyLjk2MDkiLz48dGV4dCBmaWxsPSIjMDAwMDAwIiBmb250LWZhbWlseT0ic2Fucy1zZXJpZiIgZm9udC1zaXplPSIxNCIgbGVuZ3RoQWRqdXN0PSJzcGFjaW5nIiB0ZXh0TGVuZ3RoPSI5MSIgeD0iMjciIHk9Ijc0MC4yMDMxIj5kdWVEYXRlOiBEYXRlPC90ZXh0PjxsaW5lIHN0eWxlPSJzdHJva2U6IzE4MTgxODtzdHJva2Utd2lkdGg6MC41OyIgeDE9IjgiIHgyPSI2OTEiIHkxPSI3NDUuOTUzMSIgeTI9Ijc0NS45NTMxIi8+PGVsbGlwc2UgY3g9IjE4IiBjeT0iNzU4Ljk0NTMiIGZpbGw9IiM4NEJFODQiIHJ4PSIzIiByeT0iMyIgc3R5bGU9InN0cm9rZTojMDM4MDQ4O3N0cm9rZS13aWR0aDoxLjA7Ii8+PHRleHQgZmlsbD0iIzAwMDAwMCIgZm9udC1mYW1pbHk9InNhbnMtc2VyaWYiIGZvbnQtc2l6ZT0iMTQiIGxlbmd0aEFkanVzdD0ic3BhY2luZyIgdGV4dExlbmd0aD0iNjU5IiB4PSIyNyIgeT0iNzYzLjE4NzUiPnN1Ym1pdFNvbHV0aW9uKHNvbHV0aW9uOiBTdHJpbmcpOiBib29sZWFuIHtjb21tZW50OiAvLyBBZGRpdGlvbmFsIGlkZWE6IFN1Ym1pdHRpbmcgc29sdXRpb25zfTwvdGV4dD48L2c+PCEtLWNsYXNzIFJvbGUtLT48ZyBpZD0iZWxlbV9Sb2xlIj48cmVjdCBjb2RlTGluZT0iNTYiIGZpbGw9IiNGMUYxRjEiIGhlaWdodD0iNzcuOTY4OCIgaWQ9IlJvbGUiIHJ4PSIyLjUiIHJ5PSIyLjUiIHN0eWxlPSJzdHJva2U6IzE4MTgxODtzdHJva2Utd2lkdGg6MC41OyIgd2lkdGg9IjExMSIgeD0iMTQ4OCIgeT0iNTA4Ii8+PGVsbGlwc2UgY3g9IjE1MjUuOTUiIGN5PSI1MjQiIGZpbGw9IiNBREQxQjIiIHJ4PSIxMSIgcnk9IjExIiBzdHlsZT0ic3Ryb2tlOiMxODE4MTg7c3Ryb2tlLXdpZHRoOjEuMDsiLz48cGF0aCBkPSJNMTUyMy41NzUsNTI4LjI1IEwxNTIzLjU3NSw1MzAgTDE1MjguNTEyNSw1MzAgTDE1MjguNTEyNSw1MjguMjUgTDE1MjMuNTc1LDUyOC4yNSBaIE0xNTI0LjI2MjUsNTI4LjkzNzUgUTE1MjQuMjYyNSw1MjguOTM3NSAxNTI0LjI2MjUsNTE5Ljc1IEwxNTIyLjUxMjUsNTE5Ljc1IFExNTIyLjUxMjUsNTE5Ljc1IDE1MjIuNTEyNSw1MjguOTM3NSBMMTUyNC4yNjI1LDUyOC45Mzc1IFogTTE1MjcuODI1LDUyOC45Mzc1IEwxNTI5LjU3NSw1MjguOTM3NSBRMTUyOS41NzUsNTI4LjkzNzUgMTUyOS41NzUsNTI2LjEyNSBMMTUyNy44MjUsNTI2LjEyNSBRMTUyNy44MjUsNTI2LjEyNSAxNTI3LjgyNSw1MjguOTM3NSBaIE0xNTI3LjgyNSw1MTkuNzUgUTE1MjcuODI1LDUxOS43NSAxNTI3LjgyNSw1MjIuNTYyNSBMMTUyOS41NzUsNTIyLjU2MjUgUTE1MjkuNTc1LDUyMi41NjI1IDE1MjkuNTc1LDUxOS43NSBMMTUyNy44MjUsNTE5Ljc1IFogTTE1MjMuNTc1LDUyMC40Mzc1IEwxNTI4LjUxMjUsNTIwLjQzNzUgTDE1MjguNTEyNSw1MTguNjg3NSBMMTUyMy41NzUsNTE4LjY4NzUgTDE1MjMuNTc1LDUyMC40Mzc1IFogIiBmaWxsPSIjMDAwMDAwIi8+PHRleHQgZmlsbD0iIzAwMDAwMCIgZm9udC1mYW1pbHk9InNhbnMtc2VyaWYiIGZvbnQtc2l6ZT0iMTQiIGxlbmd0aEFkanVzdD0ic3BhY2luZyIgdGV4dExlbmd0aD0iMjgiIHg9IjE1NDUuMDUiIHk9IjUyOS43NDIyIj5Sb2xlPC90ZXh0PjxsaW5lIHN0eWxlPSJzdHJva2U6IzE4MTgxODtzdHJva2Utd2lkdGg6MC41OyIgeDE9IjE0ODkiIHgyPSIxNTk4IiB5MT0iNTQwIiB5Mj0iNTQwIi8+PHJlY3QgZmlsbD0ibm9uZSIgaGVpZ2h0PSI2IiBzdHlsZT0ic3Ryb2tlOiNDODI5MzA7c3Ryb2tlLXdpZHRoOjEuMDsiIHdpZHRoPSI2IiB4PSIxNDk2IiB5PSI1NDkuOTkyMiIvPjx0ZXh0IGZpbGw9IiMwMDAwMDAiIGZvbnQtZmFtaWx5PSJzYW5zLXNlcmlmIiBmb250LXNpemU9IjE0IiBsZW5ndGhBZGp1c3Q9InNwYWNpbmciIHRleHRMZW5ndGg9Ijc3IiB4PSIxNTA4IiB5PSI1NTcuMjM0NCI+cm9sZUlkOiBpbnQ8L3RleHQ+PHJlY3QgZmlsbD0ibm9uZSIgaGVpZ2h0PSI2IiBzdHlsZT0ic3Ryb2tlOiNDODI5MzA7c3Ryb2tlLXdpZHRoOjEuMDsiIHdpZHRoPSI2IiB4PSIxNDk2IiB5PSI1NjQuOTc2NiIvPjx0ZXh0IGZpbGw9IiMwMDAwMDAiIGZvbnQtZmFtaWx5PSJzYW5zLXNlcmlmIiBmb250LXNpemU9IjE0IiBsZW5ndGhBZGp1c3Q9InNwYWNpbmciIHRleHRMZW5ndGg9Ijg1IiB4PSIxNTA4IiB5PSI1NzIuMjE4OCI+bmFtZTogU3RyaW5nPC90ZXh0PjxsaW5lIHN0eWxlPSJzdHJva2U6IzE4MTgxODtzdHJva2Utd2lkdGg6MC41OyIgeDE9IjE0ODkiIHgyPSIxNTk4IiB5MT0iNTc3Ljk2ODgiIHkyPSI1NzcuOTY4OCIvPjwvZz48IS0tY2xhc3MgR29hbC0tPjxnIGlkPSJlbGVtX0dvYWwiPjxyZWN0IGNvZGVMaW5lPSI2MSIgZmlsbD0iI0YxRjFGMSIgaGVpZ2h0PSI5Mi45NTMxIiBpZD0iR29hbCIgcng9IjIuNSIgcnk9IjIuNSIgc3R5bGU9InN0cm9rZTojMTgxODE4O3N0cm9rZS13aWR0aDowLjU7IiB3aWR0aD0iMTU5IiB4PSIxNzA2IiB5PSI1MDAuNSIvPjxlbGxpcHNlIGN4PSIxNzY3LjI1IiBjeT0iNTE2LjUiIGZpbGw9IiNBREQxQjIiIHJ4PSIxMSIgcnk9IjExIiBzdHlsZT0ic3Ryb2tlOiMxODE4MTg7c3Ryb2tlLXdpZHRoOjEuMDsiLz48cGF0aCBkPSJNMTc2NC44NzUsNTIwLjc1IEwxNzY0Ljg3NSw1MjIuNSBMMTc2OS44MTI1LDUyMi41IEwxNzY5LjgxMjUsNTIwLjc1IEwxNzY0Ljg3NSw1MjAuNzUgWiBNMTc2NS41NjI1LDUyMS40Mzc1IFExNzY1LjU2MjUsNTIxLjQzNzUgMTc2NS41NjI1LDUxMi4yNSBMMTc2My44MTI1LDUxMi4yNSBRMTc2My44MTI1LDUxMi4yNSAxNzYzLjgxMjUsNTIxLjQzNzUgTDE3NjUuNTYyNSw1MjEuNDM3NSBaIE0xNzY5LjEyNSw1MjEuNDM3NSBMMTc3MC44NzUsNTIxLjQzNzUgUTE3NzAuODc1LDUyMS40Mzc1IDE3NzAuODc1LDUxOC42MjUgTDE3NjkuMTI1LDUxOC42MjUgUTE3NjkuMTI1LDUxOC42MjUgMTc2OS4xMjUsNTIxLjQzNzUgWiBNMTc2OS4xMjUsNTEyLjI1IFExNzY5LjEyNSw1MTIuMjUgMTc2OS4xMjUsNTE1LjA2MjUgTDE3NzAuODc1LDUxNS4wNjI1IFExNzcwLjg3NSw1MTUuMDYyNSAxNzcwLjg3NSw1MTIuMjUgTDE3NjkuMTI1LDUxMi4yNSBaIE0xNzY0Ljg3NSw1MTIuOTM3NSBMMTc2OS44MTI1LDUxMi45Mzc1IEwxNzY5LjgxMjUsNTExLjE4NzUgTDE3NjQuODc1LDUxMS4xODc1IEwxNzY0Ljg3NSw1MTIuOTM3NSBaICIgZmlsbD0iIzAwMDAwMCIvPjx0ZXh0IGZpbGw9IiMwMDAwMDAiIGZvbnQtZmFtaWx5PSJzYW5zLXNlcmlmIiBmb250LXNpemU9IjE0IiBsZW5ndGhBZGp1c3Q9InNwYWNpbmciIHRleHRMZW5ndGg9IjI4IiB4PSIxNzg3Ljc1IiB5PSI1MjIuMjQyMiI+R29hbDwvdGV4dD48bGluZSBzdHlsZT0ic3Ryb2tlOiMxODE4MTg7c3Ryb2tlLXdpZHRoOjAuNTsiIHgxPSIxNzA3IiB4Mj0iMTg2NCIgeTE9IjUzMi41IiB5Mj0iNTMyLjUiLz48cmVjdCBmaWxsPSJub25lIiBoZWlnaHQ9IjYiIHN0eWxlPSJzdHJva2U6I0M4MjkzMDtzdHJva2Utd2lkdGg6MS4wOyIgd2lkdGg9IjYiIHg9IjE3MTQiIHk9IjU0Mi40OTIyIi8+PHRleHQgZmlsbD0iIzAwMDAwMCIgZm9udC1mYW1pbHk9InNhbnMtc2VyaWYiIGZvbnQtc2l6ZT0iMTQiIGxlbmd0aEFkanVzdD0ic3BhY2luZyIgdGV4dExlbmd0aD0iNzciIHg9IjE3MjYiIHk9IjU0OS43MzQ0Ij5nb2FsSWQ6IGludDwvdGV4dD48cmVjdCBmaWxsPSJub25lIiBoZWlnaHQ9IjYiIHN0eWxlPSJzdHJva2U6I0M4MjkzMDtzdHJva2Utd2lkdGg6MS4wOyIgd2lkdGg9IjYiIHg9IjE3MTQiIHk9IjU1Ny40NzY2Ii8+PHRleHQgZmlsbD0iIzAwMDAwMCIgZm9udC1mYW1pbHk9InNhbnMtc2VyaWYiIGZvbnQtc2l6ZT0iMTQiIGxlbmd0aEFkanVzdD0ic3BhY2luZyIgdGV4dExlbmd0aD0iMTMzIiB4PSIxNzI2IiB5PSI1NjQuNzE4OCI+ZGVzY3JpcHRpb246IFN0cmluZzwvdGV4dD48cmVjdCBmaWxsPSJub25lIiBoZWlnaHQ9IjYiIHN0eWxlPSJzdHJva2U6I0M4MjkzMDtzdHJva2Utd2lkdGg6MS4wOyIgd2lkdGg9IjYiIHg9IjE3MTQiIHk9IjU3Mi40NjA5Ii8+PHRleHQgZmlsbD0iIzAwMDAwMCIgZm9udC1mYW1pbHk9InNhbnMtc2VyaWYiIGZvbnQtc2l6ZT0iMTQiIGxlbmd0aEFkanVzdD0ic3BhY2luZyIgdGV4dExlbmd0aD0iMTIwIiB4PSIxNzI2IiB5PSI1NzkuNzAzMSI+cmV3YXJkUG9pbnRzOiBpbnQ8L3RleHQ+PGxpbmUgc3R5bGU9InN0cm9rZTojMTgxODE4O3N0cm9rZS13aWR0aDowLjU7IiB4MT0iMTcwNyIgeDI9IjE4NjQiIHkxPSI1ODUuNDUzMSIgeTI9IjU4NS40NTMxIi8+PC9nPjwhLS1jbGFzcyBQcm9ncmVzcy0tPjxnIGlkPSJlbGVtX1Byb2dyZXNzIj48cmVjdCBjb2RlTGluZT0iNjciIGZpbGw9IiNGMUYxRjEiIGhlaWdodD0iMTA3LjkzNzUiIGlkPSJQcm9ncmVzcyIgcng9IjIuNSIgcnk9IjIuNSIgc3R5bGU9InN0cm9rZTojMTgxODE4O3N0cm9rZS13aWR0aDowLjU7IiB3aWR0aD0iMjM3IiB4PSI5MjciIHk9IjQ5MyIvPjxlbGxpcHNlIGN4PSIxMDEzLjI1IiBjeT0iNTA5IiBmaWxsPSIjQUREMUIyIiByeD0iMTEiIHJ5PSIxMSIgc3R5bGU9InN0cm9rZTojMTgxODE4O3N0cm9rZS13aWR0aDoxLjA7Ii8+PHBhdGggZD0iTTEwMTAuODc1LDUxMy4yNSBMMTAxMC44NzUsNTE1IEwxMDE1LjgxMjUsNTE1IEwxMDE1LjgxMjUsNTEzLjI1IEwxMDEwLjg3NSw1MTMuMjUgWiBNMTAxMS41NjI1LDUxMy45Mzc1IFExMDExLjU2MjUsNTEzLjkzNzUgMTAxMS41NjI1LDUwNC43NSBMMTAwOS44MTI1LDUwNC43NSBRMTAwOS44MTI1LDUwNC43NSAxMDA5LjgxMjUsNTEzLjkzNzUgTDEwMTEuNTYyNSw1MTMuOTM3NSBaIE0xMDE1LjEyNSw1MTMuOTM3NSBMMTAxNi44NzUsNTEzLjkzNzUgUTEwMTYuODc1LDUxMy45Mzc1IDEwMTYuODc1LDUxMS4xMjUgTDEwMTUuMTI1LDUxMS4xMjUgUTEwMTUuMTI1LDUxMS4xMjUgMTAxNS4xMjUsNTEzLjkzNzUgWiBNMTAxNS4xMjUsNTA0Ljc1IFExMDE1LjEyNSw1MDQuNzUgMTAxNS4xMjUsNTA3LjU2MjUgTDEwMTYuODc1LDUwNy41NjI1IFExMDE2Ljg3NSw1MDcuNTYyNSAxMDE2Ljg3NSw1MDQuNzUgTDEwMTUuMTI1LDUwNC43NSBaIE0xMDEwLjg3NSw1MDUuNDM3NSBMMTAxNS44MTI1LDUwNS40Mzc1IEwxMDE1LjgxMjUsNTAzLjY4NzUgTDEwMTAuODc1LDUwMy42ODc1IEwxMDEwLjg3NSw1MDUuNDM3NSBaICIgZmlsbD0iIzAwMDAwMCIvPjx0ZXh0IGZpbGw9IiMwMDAwMDAiIGZvbnQtZmFtaWx5PSJzYW5zLXNlcmlmIiBmb250LXNpemU9IjE0IiBsZW5ndGhBZGp1c3Q9InNwYWNpbmciIHRleHRMZW5ndGg9IjU2IiB4PSIxMDMzLjc1IiB5PSI1MTQuNzQyMiI+UHJvZ3Jlc3M8L3RleHQ+PGxpbmUgc3R5bGU9InN0cm9rZTojMTgxODE4O3N0cm9rZS13aWR0aDowLjU7IiB4MT0iOTI4IiB4Mj0iMTE2MyIgeTE9IjUyNSIgeTI9IjUyNSIvPjxyZWN0IGZpbGw9Im5vbmUiIGhlaWdodD0iNiIgc3R5bGU9InN0cm9rZTojQzgyOTMwO3N0cm9rZS13aWR0aDoxLjA7IiB3aWR0aD0iNiIgeD0iOTM1IiB5PSI1MzQuOTkyMiIvPjx0ZXh0IGZpbGw9IiMwMDAwMDAiIGZvbnQtZmFtaWx5PSJzYW5zLXNlcmlmIiBmb250LXNpemU9IjE0IiBsZW5ndGhBZGp1c3Q9InNwYWNpbmciIHRleHRMZW5ndGg9IjEwNSIgeD0iOTQ3IiB5PSI1NDIuMjM0NCI+cHJvZ3Jlc3NJZDogaW50PC90ZXh0PjxyZWN0IGZpbGw9Im5vbmUiIGhlaWdodD0iNiIgc3R5bGU9InN0cm9rZTojQzgyOTMwO3N0cm9rZS13aWR0aDoxLjA7IiB3aWR0aD0iNiIgeD0iOTM1IiB5PSI1NDkuOTc2NiIvPjx0ZXh0IGZpbGw9IiMwMDAwMDAiIGZvbnQtZmFtaWx5PSJzYW5zLXNlcmlmIiBmb250LXNpemU9IjE0IiBsZW5ndGhBZGp1c3Q9InNwYWNpbmciIHRleHRMZW5ndGg9IjcwIiB4PSI5NDciIHk9IjU1Ny4yMTg4Ij51c2VyOiBVc2VyPC90ZXh0PjxyZWN0IGZpbGw9Im5vbmUiIGhlaWdodD0iNiIgc3R5bGU9InN0cm9rZTojQzgyOTMwO3N0cm9rZS13aWR0aDoxLjA7IiB3aWR0aD0iNiIgeD0iOTM1IiB5PSI1NjQuOTYwOSIvPjx0ZXh0IGZpbGw9IiMwMDAwMDAiIGZvbnQtZmFtaWx5PSJzYW5zLXNlcmlmIiBmb250LXNpemU9IjE0IiBsZW5ndGhBZGp1c3Q9InNwYWNpbmciIHRleHRMZW5ndGg9Ijk4IiB4PSI5NDciIHk9IjU3Mi4yMDMxIj5jb3Vyc2U6IENvdXJzZTwvdGV4dD48cmVjdCBmaWxsPSJub25lIiBoZWlnaHQ9IjYiIHN0eWxlPSJzdHJva2U6I0M4MjkzMDtzdHJva2Utd2lkdGg6MS4wOyIgd2lkdGg9IjYiIHg9IjkzNSIgeT0iNTc5Ljk0NTMiLz48dGV4dCBmaWxsPSIjMDAwMDAwIiBmb250LWZhbWlseT0ic2Fucy1zZXJpZiIgZm9udC1zaXplPSIxNCIgbGVuZ3RoQWRqdXN0PSJzcGFjaW5nIiB0ZXh0TGVuZ3RoPSIyMTEiIHg9Ijk0NyIgeT0iNTg3LjE4NzUiPmNvbXBsZXRlZE1vZHVsZXM6IExpc3QmbHQ7TW9kdWxlJmd0OzwvdGV4dD48bGluZSBzdHlsZT0ic3Ryb2tlOiMxODE4MTg7c3Ryb2tlLXdpZHRoOjAuNTsiIHgxPSI5MjgiIHgyPSIxMTYzIiB5MT0iNTkyLjkzNzUiIHkyPSI1OTIuOTM3NSIvPjwvZz48IS0tY2xhc3MgTW9kdWxlLS0+PGcgaWQ9ImVsZW1fTW9kdWxlIj48cmVjdCBjb2RlTGluZT0iNzQiIGZpbGw9IiNGMUYxRjEiIGhlaWdodD0iOTIuOTUzMSIgaWQ9Ik1vZHVsZSIgcng9IjIuNSIgcnk9IjIuNSIgc3R5bGU9InN0cm9rZTojMTgxODE4O3N0cm9rZS13aWR0aDowLjU7IiB3aWR0aD0iMTM4IiB4PSI0ODUuNSIgeT0iNTAwLjUiLz48ZWxsaXBzZSBjeD0iNTI5LjMiIGN5PSI1MTYuNSIgZmlsbD0iI0FERDFCMiIgcng9IjExIiByeT0iMTEiIHN0eWxlPSJzdHJva2U6IzE4MTgxODtzdHJva2Utd2lkdGg6MS4wOyIvPjxwYXRoIGQ9Ik01MjYuOTI1LDUyMC43NSBMNTI2LjkyNSw1MjIuNSBMNTMxLjg2MjUsNTIyLjUgTDUzMS44NjI1LDUyMC43NSBMNTI2LjkyNSw1MjAuNzUgWiBNNTI3LjYxMjUsNTIxLjQzNzUgUTUyNy42MTI1LDUyMS40Mzc1IDUyNy42MTI1LDUxMi4yNSBMNTI1Ljg2MjUsNTEyLjI1IFE1MjUuODYyNSw1MTIuMjUgNTI1Ljg2MjUsNTIxLjQzNzUgTDUyNy42MTI1LDUyMS40Mzc1IFogTTUzMS4xNzUsNTIxLjQzNzUgTDUzMi45MjUsNTIxLjQzNzUgUTUzMi45MjUsNTIxLjQzNzUgNTMyLjkyNSw1MTguNjI1IEw1MzEuMTc1LDUxOC42MjUgUTUzMS4xNzUsNTE4LjYyNSA1MzEuMTc1LDUyMS40Mzc1IFogTTUzMS4xNzUsNTEyLjI1IFE1MzEuMTc1LDUxMi4yNSA1MzEuMTc1LDUxNS4wNjI1IEw1MzIuOTI1LDUxNS4wNjI1IFE1MzIuOTI1LDUxNS4wNjI1IDUzMi45MjUsNTEyLjI1IEw1MzEuMTc1LDUxMi4yNSBaIE01MjYuOTI1LDUxMi45Mzc1IEw1MzEuODYyNSw1MTIuOTM3NSBMNTMxLjg2MjUsNTExLjE4NzUgTDUyNi45MjUsNTExLjE4NzUgTDUyNi45MjUsNTEyLjkzNzUgWiAiIGZpbGw9IiMwMDAwMDAiLz48dGV4dCBmaWxsPSIjMDAwMDAwIiBmb250LWZhbWlseT0ic2Fucy1zZXJpZiIgZm9udC1zaXplPSIxNCIgbGVuZ3RoQWRqdXN0PSJzcGFjaW5nIiB0ZXh0TGVuZ3RoPSI0MiIgeD0iNTQ5LjciIHk9IjUyMi4yNDIyIj5Nb2R1bGU8L3RleHQ+PGxpbmUgc3R5bGU9InN0cm9rZTojMTgxODE4O3N0cm9rZS13aWR0aDowLjU7IiB4MT0iNDg2LjUiIHgyPSI2MjIuNSIgeTE9IjUzMi41IiB5Mj0iNTMyLjUiLz48cmVjdCBmaWxsPSJub25lIiBoZWlnaHQ9IjYiIHN0eWxlPSJzdHJva2U6I0M4MjkzMDtzdHJva2Utd2lkdGg6MS4wOyIgd2lkdGg9IjYiIHg9IjQ5My41IiB5PSI1NDIuNDkyMiIvPjx0ZXh0IGZpbGw9IiMwMDAwMDAiIGZvbnQtZmFtaWx5PSJzYW5zLXNlcmlmIiBmb250LXNpemU9IjE0IiBsZW5ndGhBZGp1c3Q9InNwYWNpbmciIHRleHRMZW5ndGg9IjkyIiB4PSI1MDUuNSIgeT0iNTQ5LjczNDQiPm1vZHVsZUlkOiBpbnQ8L3RleHQ+PHJlY3QgZmlsbD0ibm9uZSIgaGVpZ2h0PSI2IiBzdHlsZT0ic3Ryb2tlOiNDODI5MzA7c3Ryb2tlLXdpZHRoOjEuMDsiIHdpZHRoPSI2IiB4PSI0OTMuNSIgeT0iNTU3LjQ3NjYiLz48dGV4dCBmaWxsPSIjMDAwMDAwIiBmb250LWZhbWlseT0ic2Fucy1zZXJpZiIgZm9udC1zaXplPSIxNCIgbGVuZ3RoQWRqdXN0PSJzcGFjaW5nIiB0ZXh0TGVuZ3RoPSI5MSIgeD0iNTA1LjUiIHk9IjU2NC43MTg4Ij50aXRsZTogU3RyaW5nPC90ZXh0PjxyZWN0IGZpbGw9Im5vbmUiIGhlaWdodD0iNiIgc3R5bGU9InN0cm9rZTojQzgyOTMwO3N0cm9rZS13aWR0aDoxLjA7IiB3aWR0aD0iNiIgeD0iNDkzLjUiIHk9IjU3Mi40NjA5Ii8+PHRleHQgZmlsbD0iIzAwMDAwMCIgZm9udC1mYW1pbHk9InNhbnMtc2VyaWYiIGZvbnQtc2l6ZT0iMTQiIGxlbmd0aEFkanVzdD0ic3BhY2luZyIgdGV4dExlbmd0aD0iMTEyIiB4PSI1MDUuNSIgeT0iNTc5LjcwMzEiPmNvbnRlbnQ6IENvbnRlbnQ8L3RleHQ+PGxpbmUgc3R5bGU9InN0cm9rZTojMTgxODE4O3N0cm9rZS13aWR0aDowLjU7IiB4MT0iNDg2LjUiIHgyPSI2MjIuNSIgeTE9IjU4NS40NTMxIiB5Mj0iNTg1LjQ1MzEiLz48L2c+PCEtLWNsYXNzIEZvcnVtLS0+PGcgaWQ9ImVsZW1fRm9ydW0iPjxyZWN0IGNvZGVMaW5lPSI4MCIgZmlsbD0iI0YxRjFGMSIgaGVpZ2h0PSI3Ny45Njg4IiBpZD0iRm9ydW0iIHJ4PSIyLjUiIHJ5PSIyLjUiIHN0eWxlPSJzdHJva2U6IzE4MTgxODtzdHJva2Utd2lkdGg6MC41OyIgd2lkdGg9IjExNyIgeD0iNzc1IiB5PSI1MDgiLz48ZWxsaXBzZSBjeD0iODEyLjA1IiBjeT0iNTI0IiBmaWxsPSIjQUREMUIyIiByeD0iMTEiIHJ5PSIxMSIgc3R5bGU9InN0cm9rZTojMTgxODE4O3N0cm9rZS13aWR0aDoxLjA7Ii8+PHBhdGggZD0iTTgwOS42NzUsNTI4LjI1IEw4MDkuNjc1LDUzMCBMODE0LjYxMjUsNTMwIEw4MTQuNjEyNSw1MjguMjUgTDgwOS42NzUsNTI4LjI1IFogTTgxMC4zNjI1LDUyOC45Mzc1IFE4MTAuMzYyNSw1MjguOTM3NSA4MTAuMzYyNSw1MTkuNzUgTDgwOC42MTI1LDUxOS43NSBRODA4LjYxMjUsNTE5Ljc1IDgwOC42MTI1LDUyOC45Mzc1IEw4MTAuMzYyNSw1MjguOTM3NSBaIE04MTMuOTI1LDUyOC45Mzc1IEw4MTUuNjc1LDUyOC45Mzc1IFE4MTUuNjc1LDUyOC45Mzc1IDgxNS42NzUsNTI2LjEyNSBMODEzLjkyNSw1MjYuMTI1IFE4MTMuOTI1LDUyNi4xMjUgODEzLjkyNSw1MjguOTM3NSBaIE04MTMuOTI1LDUxOS43NSBRODEzLjkyNSw1MTkuNzUgODEzLjkyNSw1MjIuNTYyNSBMODE1LjY3NSw1MjIuNTYyNSBRODE1LjY3NSw1MjIuNTYyNSA4MTUuNjc1LDUxOS43NSBMODEzLjkyNSw1MTkuNzUgWiBNODA5LjY3NSw1MjAuNDM3NSBMODE0LjYxMjUsNTIwLjQzNzUgTDgxNC42MTI1LDUxOC42ODc1IEw4MDkuNjc1LDUxOC42ODc1IEw4MDkuNjc1LDUyMC40Mzc1IFogIiBmaWxsPSIjMDAwMDAwIi8+PHRleHQgZmlsbD0iIzAwMDAwMCIgZm9udC1mYW1pbHk9InNhbnMtc2VyaWYiIGZvbnQtc2l6ZT0iMTQiIGxlbmd0aEFkanVzdD0ic3BhY2luZyIgdGV4dExlbmd0aD0iMzYiIHg9IjgzMC45NSIgeT0iNTI5Ljc0MjIiPkZvcnVtPC90ZXh0PjxsaW5lIHN0eWxlPSJzdHJva2U6IzE4MTgxODtzdHJva2Utd2lkdGg6MC41OyIgeDE9Ijc3NiIgeDI9Ijg5MSIgeTE9IjU0MCIgeTI9IjU0MCIvPjxyZWN0IGZpbGw9Im5vbmUiIGhlaWdodD0iNiIgc3R5bGU9InN0cm9rZTojQzgyOTMwO3N0cm9rZS13aWR0aDoxLjA7IiB3aWR0aD0iNiIgeD0iNzgzIiB5PSI1NDkuOTkyMiIvPjx0ZXh0IGZpbGw9IiMwMDAwMDAiIGZvbnQtZmFtaWx5PSJzYW5zLXNlcmlmIiBmb250LXNpemU9IjE0IiBsZW5ndGhBZGp1c3Q9InNwYWNpbmciIHRleHRMZW5ndGg9Ijg1IiB4PSI3OTUiIHk9IjU1Ny4yMzQ0Ij5mb3J1bUlkOiBpbnQ8L3RleHQ+PHJlY3QgZmlsbD0ibm9uZSIgaGVpZ2h0PSI2IiBzdHlsZT0ic3Ryb2tlOiNDODI5MzA7c3Ryb2tlLXdpZHRoOjEuMDsiIHdpZHRoPSI2IiB4PSI3ODMiIHk9IjU2NC45NzY2Ii8+PHRleHQgZmlsbD0iIzAwMDAwMCIgZm9udC1mYW1pbHk9InNhbnMtc2VyaWYiIGZvbnQtc2l6ZT0iMTQiIGxlbmd0aEFkanVzdD0ic3BhY2luZyIgdGV4dExlbmd0aD0iOTEiIHg9Ijc5NSIgeT0iNTcyLjIxODgiPnRpdGxlOiBTdHJpbmc8L3RleHQ+PGxpbmUgc3R5bGU9InN0cm9rZTojMTgxODE4O3N0cm9rZS13aWR0aDowLjU7IiB4MT0iNzc2IiB4Mj0iODkxIiB5MT0iNTc3Ljk2ODgiIHkyPSI1NzcuOTY4OCIvPjwvZz48IS0tY2xhc3MgUG9zdC0tPjxnIGlkPSJlbGVtX1Bvc3QiPjxyZWN0IGNvZGVMaW5lPSI4NSIgZmlsbD0iI0YxRjFGMSIgaGVpZ2h0PSIxMDcuOTM3NSIgaWQ9IlBvc3QiIHJ4PSIyLjUiIHJ5PSIyLjUiIHN0eWxlPSJzdHJva2U6IzE4MTgxODtzdHJva2Utd2lkdGg6MC41OyIgd2lkdGg9IjEzMiIgeD0iMTIyOC41IiB5PSI2NjEiLz48ZWxsaXBzZSBjeD0iMTI3Ni4yNSIgY3k9IjY3NyIgZmlsbD0iI0FERDFCMiIgcng9IjExIiByeT0iMTEiIHN0eWxlPSJzdHJva2U6IzE4MTgxODtzdHJva2Utd2lkdGg6MS4wOyIvPjxwYXRoIGQ9Ik0xMjczLjg3NSw2ODEuMjUgTDEyNzMuODc1LDY4MyBMMTI3OC44MTI1LDY4MyBMMTI3OC44MTI1LDY4MS4yNSBMMTI3My44NzUsNjgxLjI1IFogTTEyNzQuNTYyNSw2ODEuOTM3NSBRMTI3NC41NjI1LDY4MS45Mzc1IDEyNzQuNTYyNSw2NzIuNzUgTDEyNzIuODEyNSw2NzIuNzUgUTEyNzIuODEyNSw2NzIuNzUgMTI3Mi44MTI1LDY4MS45Mzc1IEwxMjc0LjU2MjUsNjgxLjkzNzUgWiBNMTI3OC4xMjUsNjgxLjkzNzUgTDEyNzkuODc1LDY4MS45Mzc1IFExMjc5Ljg3NSw2ODEuOTM3NSAxMjc5Ljg3NSw2NzkuMTI1IEwxMjc4LjEyNSw2NzkuMTI1IFExMjc4LjEyNSw2NzkuMTI1IDEyNzguMTI1LDY4MS45Mzc1IFogTTEyNzguMTI1LDY3Mi43NSBRMTI3OC4xMjUsNjcyLjc1IDEyNzguMTI1LDY3NS41NjI1IEwxMjc5Ljg3NSw2NzUuNTYyNSBRMTI3OS44NzUsNjc1LjU2MjUgMTI3OS44NzUsNjcyLjc1IEwxMjc4LjEyNSw2NzIuNzUgWiBNMTI3My44NzUsNjczLjQzNzUgTDEyNzguODEyNSw2NzMuNDM3NSBMMTI3OC44MTI1LDY3MS42ODc1IEwxMjczLjg3NSw2NzEuNjg3NSBMMTI3My44NzUsNjczLjQzNzUgWiAiIGZpbGw9IiMwMDAwMDAiLz48dGV4dCBmaWxsPSIjMDAwMDAwIiBmb250LWZhbWlseT0ic2Fucy1zZXJpZiIgZm9udC1zaXplPSIxNCIgbGVuZ3RoQWRqdXN0PSJzcGFjaW5nIiB0ZXh0TGVuZ3RoPSIyOCIgeD0iMTI5Ni43NSIgeT0iNjgyLjc0MjIiPlBvc3Q8L3RleHQ+PGxpbmUgc3R5bGU9InN0cm9rZTojMTgxODE4O3N0cm9rZS13aWR0aDowLjU7IiB4MT0iMTIyOS41IiB4Mj0iMTM1OS41IiB5MT0iNjkzIiB5Mj0iNjkzIi8+PHJlY3QgZmlsbD0ibm9uZSIgaGVpZ2h0PSI2IiBzdHlsZT0ic3Ryb2tlOiNDODI5MzA7c3Ryb2tlLXdpZHRoOjEuMDsiIHdpZHRoPSI2IiB4PSIxMjM2LjUiIHk9IjcwMi45OTIyIi8+PHRleHQgZmlsbD0iIzAwMDAwMCIgZm9udC1mYW1pbHk9InNhbnMtc2VyaWYiIGZvbnQtc2l6ZT0iMTQiIGxlbmd0aEFkanVzdD0ic3BhY2luZyIgdGV4dExlbmd0aD0iNzciIHg9IjEyNDguNSIgeT0iNzEwLjIzNDQiPnBvc3RJZDogaW50PC90ZXh0PjxyZWN0IGZpbGw9Im5vbmUiIGhlaWdodD0iNiIgc3R5bGU9InN0cm9rZTojQzgyOTMwO3N0cm9rZS13aWR0aDoxLjA7IiB3aWR0aD0iNiIgeD0iMTIzNi41IiB5PSI3MTcuOTc2NiIvPjx0ZXh0IGZpbGw9IiMwMDAwMDAiIGZvbnQtZmFtaWx5PSJzYW5zLXNlcmlmIiBmb250LXNpemU9IjE0IiBsZW5ndGhBZGp1c3Q9InNwYWNpbmciIHRleHRMZW5ndGg9IjEwNiIgeD0iMTI0OC41IiB5PSI3MjUuMjE4OCI+bWVzc2FnZTogU3RyaW5nPC90ZXh0PjxyZWN0IGZpbGw9Im5vbmUiIGhlaWdodD0iNiIgc3R5bGU9InN0cm9rZTojQzgyOTMwO3N0cm9rZS13aWR0aDoxLjA7IiB3aWR0aD0iNiIgeD0iMTIzNi41IiB5PSI3MzIuOTYwOSIvPjx0ZXh0IGZpbGw9IiMwMDAwMDAiIGZvbnQtZmFtaWx5PSJzYW5zLXNlcmlmIiBmb250LXNpemU9IjE0IiBsZW5ndGhBZGp1c3Q9InNwYWNpbmciIHRleHRMZW5ndGg9IjcwIiB4PSIxMjQ4LjUiIHk9Ijc0MC4yMDMxIj51c2VyOiBVc2VyPC90ZXh0PjxyZWN0IGZpbGw9Im5vbmUiIGhlaWdodD0iNiIgc3R5bGU9InN0cm9rZTojQzgyOTMwO3N0cm9rZS13aWR0aDoxLjA7IiB3aWR0aD0iNiIgeD0iMTIzNi41IiB5PSI3NDcuOTQ1MyIvPjx0ZXh0IGZpbGw9IiMwMDAwMDAiIGZvbnQtZmFtaWx5PSJzYW5zLXNlcmlmIiBmb250LXNpemU9IjE0IiBsZW5ndGhBZGp1c3Q9InNwYWNpbmciIHRleHRMZW5ndGg9Ijg2IiB4PSIxMjQ4LjUiIHk9Ijc1NS4xODc1Ij5mb3J1bTogRm9ydW08L3RleHQ+PGxpbmUgc3R5bGU9InN0cm9rZTojMTgxODE4O3N0cm9rZS13aWR0aDowLjU7IiB4MT0iMTIyOS41IiB4Mj0iMTM1OS41IiB5MT0iNzYwLjkzNzUiIHkyPSI3NjAuOTM3NSIvPjwvZz48IS0tY2xhc3MgUmVwb3J0LS0+PGcgaWQ9ImVsZW1fUmVwb3J0Ij48cmVjdCBjb2RlTGluZT0iOTIiIGZpbGw9IiNGMUYxRjEiIGhlaWdodD0iMTA3LjkzNzUiIGlkPSJSZXBvcnQiIHJ4PSIyLjUiIHJ5PSIyLjUiIHN0eWxlPSJzdHJva2U6IzE4MTgxODtzdHJva2Utd2lkdGg6MC41OyIgd2lkdGg9IjE4MiIgeD0iMTI3MC41IiB5PSI0OTMiLz48ZWxsaXBzZSBjeD0iMTMzNi4yNSIgY3k9IjUwOSIgZmlsbD0iI0FERDFCMiIgcng9IjExIiByeT0iMTEiIHN0eWxlPSJzdHJva2U6IzE4MTgxODtzdHJva2Utd2lkdGg6MS4wOyIvPjxwYXRoIGQ9Ik0xMzMzLjg3NSw1MTMuMjUgTDEzMzMuODc1LDUxNSBMMTMzOC44MTI1LDUxNSBMMTMzOC44MTI1LDUxMy4yNSBMMTMzMy44NzUsNTEzLjI1IFogTTEzMzQuNTYyNSw1MTMuOTM3NSBRMTMzNC41NjI1LDUxMy45Mzc1IDEzMzQuNTYyNSw1MDQuNzUgTDEzMzIuODEyNSw1MDQuNzUgUTEzMzIuODEyNSw1MDQuNzUgMTMzMi44MTI1LDUxMy45Mzc1IEwxMzM0LjU2MjUsNTEzLjkzNzUgWiBNMTMzOC4xMjUsNTEzLjkzNzUgTDEzMzkuODc1LDUxMy45Mzc1IFExMzM5Ljg3NSw1MTMuOTM3NSAxMzM5Ljg3NSw1MTEuMTI1IEwxMzM4LjEyNSw1MTEuMTI1IFExMzM4LjEyNSw1MTEuMTI1IDEzMzguMTI1LDUxMy45Mzc1IFogTTEzMzguMTI1LDUwNC43NSBRMTMzOC4xMjUsNTA0Ljc1IDEzMzguMTI1LDUwNy41NjI1IEwxMzM5Ljg3NSw1MDcuNTYyNSBRMTMzOS44NzUsNTA3LjU2MjUgMTMzOS44NzUsNTA0Ljc1IEwxMzM4LjEyNSw1MDQuNzUgWiBNMTMzMy44NzUsNTA1LjQzNzUgTDEzMzguODEyNSw1MDUuNDM3NSBMMTMzOC44MTI1LDUwMy42ODc1IEwxMzMzLjg3NSw1MDMuNjg3NSBMMTMzMy44NzUsNTA1LjQzNzUgWiAiIGZpbGw9IiMwMDAwMDAiLz48dGV4dCBmaWxsPSIjMDAwMDAwIiBmb250LWZhbWlseT0ic2Fucy1zZXJpZiIgZm9udC1zaXplPSIxNCIgbGVuZ3RoQWRqdXN0PSJzcGFjaW5nIiB0ZXh0TGVuZ3RoPSI0MiIgeD0iMTM1Ni43NSIgeT0iNTE0Ljc0MjIiPlJlcG9ydDwvdGV4dD48bGluZSBzdHlsZT0ic3Ryb2tlOiMxODE4MTg7c3Ryb2tlLXdpZHRoOjAuNTsiIHgxPSIxMjcxLjUiIHgyPSIxNDUxLjUiIHkxPSI1MjUiIHkyPSI1MjUiLz48cmVjdCBmaWxsPSJub25lIiBoZWlnaHQ9IjYiIHN0eWxlPSJzdHJva2U6I0M4MjkzMDtzdHJva2Utd2lkdGg6MS4wOyIgd2lkdGg9IjYiIHg9IjEyNzguNSIgeT0iNTM0Ljk5MjIiLz48dGV4dCBmaWxsPSIjMDAwMDAwIiBmb250LWZhbWlseT0ic2Fucy1zZXJpZiIgZm9udC1zaXplPSIxNCIgbGVuZ3RoQWRqdXN0PSJzcGFjaW5nIiB0ZXh0TGVuZ3RoPSI5MSIgeD0iMTI5MC41IiB5PSI1NDIuMjM0NCI+cmVwb3J0SWQ6IGludDwvdGV4dD48cmVjdCBmaWxsPSJub25lIiBoZWlnaHQ9IjYiIHN0eWxlPSJzdHJva2U6I0M4MjkzMDtzdHJva2Utd2lkdGg6MS4wOyIgd2lkdGg9IjYiIHg9IjEyNzguNSIgeT0iNTQ5Ljk3NjYiLz48dGV4dCBmaWxsPSIjMDAwMDAwIiBmb250LWZhbWlseT0ic2Fucy1zZXJpZiIgZm9udC1zaXplPSIxNCIgbGVuZ3RoQWRqdXN0PSJzcGFjaW5nIiB0ZXh0TGVuZ3RoPSI3MCIgeD0iMTI5MC41IiB5PSI1NTcuMjE4OCI+dXNlcjogVXNlcjwvdGV4dD48cmVjdCBmaWxsPSJub25lIiBoZWlnaHQ9IjYiIHN0eWxlPSJzdHJva2U6I0M4MjkzMDtzdHJva2Utd2lkdGg6MS4wOyIgd2lkdGg9IjYiIHg9IjEyNzguNSIgeT0iNTY0Ljk2MDkiLz48dGV4dCBmaWxsPSIjMDAwMDAwIiBmb250LWZhbWlseT0ic2Fucy1zZXJpZiIgZm9udC1zaXplPSIxNCIgbGVuZ3RoQWRqdXN0PSJzcGFjaW5nIiB0ZXh0TGVuZ3RoPSI5OCIgeD0iMTI5MC41IiB5PSI1NzIuMjAzMSI+Y291cnNlOiBDb3Vyc2U8L3RleHQ+PGxpbmUgc3R5bGU9InN0cm9rZTojMTgxODE4O3N0cm9rZS13aWR0aDowLjU7IiB4MT0iMTI3MS41IiB4Mj0iMTQ1MS41IiB5MT0iNTc3Ljk1MzEiIHkyPSI1NzcuOTUzMSIvPjxlbGxpcHNlIGN4PSIxMjgxLjUiIGN5PSI1OTAuOTQ1MyIgZmlsbD0iIzg0QkU4NCIgcng9IjMiIHJ5PSIzIiBzdHlsZT0ic3Ryb2tlOiMwMzgwNDg7c3Ryb2tlLXdpZHRoOjEuMDsiLz48dGV4dCBmaWxsPSIjMDAwMDAwIiBmb250LWZhbWlseT0ic2Fucy1zZXJpZiIgZm9udC1zaXplPSIxNCIgbGVuZ3RoQWRqdXN0PSJzcGFjaW5nIiB0ZXh0TGVuZ3RoPSIxNTYiIHg9IjEyOTAuNSIgeT0iNTk1LjE4NzUiPmdlbmVyYXRlUmVwb3J0KCk6IHZvaWQ8L3RleHQ+PC9nPjwhLS1jbGFzcyBBY2hpZXZlbWVudC0tPjxnIGlkPSJlbGVtX0FjaGlldmVtZW50Ij48cmVjdCBjb2RlTGluZT0iOTkiIGZpbGw9IiNGMUYxRjEiIGhlaWdodD0iOTIuOTUzMSIgaWQ9IkFjaGlldmVtZW50IiByeD0iMi41IiByeT0iMi41IiBzdHlsZT0ic3Ryb2tlOiMxODE4MTg7c3Ryb2tlLXdpZHRoOjAuNTsiIHdpZHRoPSIxNTkiIHg9IjQ5IiB5PSIxNC41Ii8+PGVsbGlwc2UgY3g9Ijg2LjA1IiBjeT0iMzAuNSIgZmlsbD0iI0FERDFCMiIgcng9IjExIiByeT0iMTEiIHN0eWxlPSJzdHJva2U6IzE4MTgxODtzdHJva2Utd2lkdGg6MS4wOyIvPjxwYXRoIGQ9Ik04My42NzUsMzQuNzUgTDgzLjY3NSwzNi41IEw4OC42MTI1LDM2LjUgTDg4LjYxMjUsMzQuNzUgTDgzLjY3NSwzNC43NSBaIE04NC4zNjI1LDM1LjQzNzUgUTg0LjM2MjUsMzUuNDM3NSA4NC4zNjI1LDI2LjI1IEw4Mi42MTI1LDI2LjI1IFE4Mi42MTI1LDI2LjI1IDgyLjYxMjUsMzUuNDM3NSBMODQuMzYyNSwzNS40Mzc1IFogTTg3LjkyNSwzNS40Mzc1IEw4OS42NzUsMzUuNDM3NSBRODkuNjc1LDM1LjQzNzUgODkuNjc1LDMyLjYyNSBMODcuOTI1LDMyLjYyNSBRODcuOTI1LDMyLjYyNSA4Ny45MjUsMzUuNDM3NSBaIE04Ny45MjUsMjYuMjUgUTg3LjkyNSwyNi4yNSA4Ny45MjUsMjkuMDYyNSBMODkuNjc1LDI5LjA2MjUgUTg5LjY3NSwyOS4wNjI1IDg5LjY3NSwyNi4yNSBMODcuOTI1LDI2LjI1IFogTTgzLjY3NSwyNi45Mzc1IEw4OC42MTI1LDI2LjkzNzUgTDg4LjYxMjUsMjUuMTg3NSBMODMuNjc1LDI1LjE4NzUgTDgzLjY3NSwyNi45Mzc1IFogIiBmaWxsPSIjMDAwMDAwIi8+PHRleHQgZmlsbD0iIzAwMDAwMCIgZm9udC1mYW1pbHk9InNhbnMtc2VyaWYiIGZvbnQtc2l6ZT0iMTQiIGxlbmd0aEFkanVzdD0ic3BhY2luZyIgdGV4dExlbmd0aD0iNzgiIHg9IjEwNC45NSIgeT0iMzYuMjQyMiI+QWNoaWV2ZW1lbnQ8L3RleHQ+PGxpbmUgc3R5bGU9InN0cm9rZTojMTgxODE4O3N0cm9rZS13aWR0aDowLjU7IiB4MT0iNTAiIHgyPSIyMDciIHkxPSI0Ni41IiB5Mj0iNDYuNSIvPjxyZWN0IGZpbGw9Im5vbmUiIGhlaWdodD0iNiIgc3R5bGU9InN0cm9rZTojQzgyOTMwO3N0cm9rZS13aWR0aDoxLjA7IiB3aWR0aD0iNiIgeD0iNTciIHk9IjU2LjQ5MjIiLz48dGV4dCBmaWxsPSIjMDAwMDAwIiBmb250LWZhbWlseT0ic2Fucy1zZXJpZiIgZm9udC1zaXplPSIxNCIgbGVuZ3RoQWRqdXN0PSJzcGFjaW5nIiB0ZXh0TGVuZ3RoPSIxMjciIHg9IjY5IiB5PSI2My43MzQ0Ij5hY2hpZXZlbWVudElkOiBpbnQ8L3RleHQ+PHJlY3QgZmlsbD0ibm9uZSIgaGVpZ2h0PSI2IiBzdHlsZT0ic3Ryb2tlOiNDODI5MzA7c3Ryb2tlLXdpZHRoOjEuMDsiIHdpZHRoPSI2IiB4PSI1NyIgeT0iNzEuNDc2NiIvPjx0ZXh0IGZpbGw9IiMwMDAwMDAiIGZvbnQtZmFtaWx5PSJzYW5zLXNlcmlmIiBmb250LXNpemU9IjE0IiBsZW5ndGhBZGp1c3Q9InNwYWNpbmciIHRleHRMZW5ndGg9Ijg1IiB4PSI2OSIgeT0iNzguNzE4OCI+bmFtZTogU3RyaW5nPC90ZXh0PjxyZWN0IGZpbGw9Im5vbmUiIGhlaWdodD0iNiIgc3R5bGU9InN0cm9rZTojQzgyOTMwO3N0cm9rZS13aWR0aDoxLjA7IiB3aWR0aD0iNiIgeD0iNTciIHk9Ijg2LjQ2MDkiLz48dGV4dCBmaWxsPSIjMDAwMDAwIiBmb250LWZhbWlseT0ic2Fucy1zZXJpZiIgZm9udC1zaXplPSIxNCIgbGVuZ3RoQWRqdXN0PSJzcGFjaW5nIiB0ZXh0TGVuZ3RoPSIxMzMiIHg9IjY5IiB5PSI5My43MDMxIj5kZXNjcmlwdGlvbjogU3RyaW5nPC90ZXh0PjxsaW5lIHN0eWxlPSJzdHJva2U6IzE4MTgxODtzdHJva2Utd2lkdGg6MC41OyIgeDE9IjUwIiB4Mj0iMjA3IiB5MT0iOTkuNDUzMSIgeTI9Ijk5LjQ1MzEiLz48L2c+PCEtLWNsYXNzIEdyYWRlLS0+PGcgaWQ9ImVsZW1fR3JhZGUiPjxyZWN0IGNvZGVMaW5lPSIxMDUiIGZpbGw9IiNGMUYxRjEiIGhlaWdodD0iMTA3LjkzNzUiIGlkPSJHcmFkZSIgcng9IjIuNSIgcnk9IjIuNSIgc3R5bGU9InN0cm9rZTojMTgxODE4O3N0cm9rZS13aWR0aDowLjU7IiB3aWR0aD0iMTgyIiB4PSIyNDMuNSIgeT0iNyIvPjxlbGxpcHNlIGN4PSIzMTIuNzUiIGN5PSIyMyIgZmlsbD0iI0FERDFCMiIgcng9IjExIiByeT0iMTEiIHN0eWxlPSJzdHJva2U6IzE4MTgxODtzdHJva2Utd2lkdGg6MS4wOyIvPjxwYXRoIGQ9Ik0zMTAuMzc1LDI3LjI1IEwzMTAuMzc1LDI5IEwzMTUuMzEyNSwyOSBMMzE1LjMxMjUsMjcuMjUgTDMxMC4zNzUsMjcuMjUgWiBNMzExLjA2MjUsMjcuOTM3NSBRMzExLjA2MjUsMjcuOTM3NSAzMTEuMDYyNSwxOC43NSBMMzA5LjMxMjUsMTguNzUgUTMwOS4zMTI1LDE4Ljc1IDMwOS4zMTI1LDI3LjkzNzUgTDMxMS4wNjI1LDI3LjkzNzUgWiBNMzE0LjYyNSwyNy45Mzc1IEwzMTYuMzc1LDI3LjkzNzUgUTMxNi4zNzUsMjcuOTM3NSAzMTYuMzc1LDI1LjEyNSBMMzE0LjYyNSwyNS4xMjUgUTMxNC42MjUsMjUuMTI1IDMxNC42MjUsMjcuOTM3NSBaIE0zMTQuNjI1LDE4Ljc1IFEzMTQuNjI1LDE4Ljc1IDMxNC42MjUsMjEuNTYyNSBMMzE2LjM3NSwyMS41NjI1IFEzMTYuMzc1LDIxLjU2MjUgMzE2LjM3NSwxOC43NSBMMzE0LjYyNSwxOC43NSBaIE0zMTAuMzc1LDE5LjQzNzUgTDMxNS4zMTI1LDE5LjQzNzUgTDMxNS4zMTI1LDE3LjY4NzUgTDMxMC4zNzUsMTcuNjg3NSBMMzEwLjM3NSwxOS40Mzc1IFogIiBmaWxsPSIjMDAwMDAwIi8+PHRleHQgZmlsbD0iIzAwMDAwMCIgZm9udC1mYW1pbHk9InNhbnMtc2VyaWYiIGZvbnQtc2l6ZT0iMTQiIGxlbmd0aEFkanVzdD0ic3BhY2luZyIgdGV4dExlbmd0aD0iMzUiIHg9IjMzMy4yNSIgeT0iMjguNzQyMiI+R3JhZGU8L3RleHQ+PGxpbmUgc3R5bGU9InN0cm9rZTojMTgxODE4O3N0cm9rZS13aWR0aDowLjU7IiB4MT0iMjQ0LjUiIHgyPSI0MjQuNSIgeTE9IjM5IiB5Mj0iMzkiLz48cmVjdCBmaWxsPSJub25lIiBoZWlnaHQ9IjYiIHN0eWxlPSJzdHJva2U6I0M4MjkzMDtzdHJva2Utd2lkdGg6MS4wOyIgd2lkdGg9IjYiIHg9IjI1MS41IiB5PSI0OC45OTIyIi8+PHRleHQgZmlsbD0iIzAwMDAwMCIgZm9udC1mYW1pbHk9InNhbnMtc2VyaWYiIGZvbnQtc2l6ZT0iMTQiIGxlbmd0aEFkanVzdD0ic3BhY2luZyIgdGV4dExlbmd0aD0iODQiIHg9IjI2My41IiB5PSI1Ni4yMzQ0Ij5ncmFkZUlkOiBpbnQ8L3RleHQ+PHJlY3QgZmlsbD0ibm9uZSIgaGVpZ2h0PSI2IiBzdHlsZT0ic3Ryb2tlOiNDODI5MzA7c3Ryb2tlLXdpZHRoOjEuMDsiIHdpZHRoPSI2IiB4PSIyNTEuNSIgeT0iNjMuOTc2NiIvPjx0ZXh0IGZpbGw9IiMwMDAwMDAiIGZvbnQtZmFtaWx5PSJzYW5zLXNlcmlmIiBmb250LXNpemU9IjE0IiBsZW5ndGhBZGp1c3Q9InNwYWNpbmciIHRleHRMZW5ndGg9IjE1NiIgeD0iMjYzLjUiIHk9IjcxLjIxODgiPmFzc2lnbm1lbnQ6IEFzc2lnbm1lbnQ8L3RleHQ+PHJlY3QgZmlsbD0ibm9uZSIgaGVpZ2h0PSI2IiBzdHlsZT0ic3Ryb2tlOiNDODI5MzA7c3Ryb2tlLXdpZHRoOjEuMDsiIHdpZHRoPSI2IiB4PSIyNTEuNSIgeT0iNzguOTYwOSIvPjx0ZXh0IGZpbGw9IiMwMDAwMDAiIGZvbnQtZmFtaWx5PSJzYW5zLXNlcmlmIiBmb250LXNpemU9IjE0IiBsZW5ndGhBZGp1c3Q9InNwYWNpbmciIHRleHRMZW5ndGg9IjExMiIgeD0iMjYzLjUiIHk9Ijg2LjIwMzEiPnN0dWRlbnQ6IFN0dWRlbnQ8L3RleHQ+PHJlY3QgZmlsbD0ibm9uZSIgaGVpZ2h0PSI2IiBzdHlsZT0ic3Ryb2tlOiNDODI5MzA7c3Ryb2tlLXdpZHRoOjEuMDsiIHdpZHRoPSI2IiB4PSIyNTEuNSIgeT0iOTMuOTQ1MyIvPjx0ZXh0IGZpbGw9IiMwMDAwMDAiIGZvbnQtZmFtaWx5PSJzYW5zLXNlcmlmIiBmb250LXNpemU9IjE0IiBsZW5ndGhBZGp1c3Q9InNwYWNpbmciIHRleHRMZW5ndGg9IjkxIiB4PSIyNjMuNSIgeT0iMTAxLjE4NzUiPnNjb3JlOiBkb3VibGU8L3RleHQ+PGxpbmUgc3R5bGU9InN0cm9rZTojMTgxODE4O3N0cm9rZS13aWR0aDowLjU7IiB4MT0iMjQ0LjUiIHgyPSI0MjQuNSIgeTE9IjEwNi45Mzc1IiB5Mj0iMTA2LjkzNzUiLz48L2c+PCEtLWNsYXNzIENvbnRlbnRUeXBlLS0+PGcgaWQ9ImVsZW1fQ29udGVudFR5cGUiPjxyZWN0IGNvZGVMaW5lPSIxMTMiIGZpbGw9IiNGMUYxRjEiIGhlaWdodD0iOTIuOTUzMSIgaWQ9IkNvbnRlbnRUeXBlIiByeD0iMi41IiByeT0iMi41IiBzdHlsZT0ic3Ryb2tlOiMxODE4MTg7c3Ryb2tlLXdpZHRoOjAuNTsiIHdpZHRoPSIxMDkiIHg9IjcyNyIgeT0iNjY4LjUiLz48ZWxsaXBzZSBjeD0iNzQyIiBjeT0iNjg0LjUiIGZpbGw9IiNFQjkzN0YiIHJ4PSIxMSIgcnk9IjExIiBzdHlsZT0ic3Ryb2tlOiMxODE4MTg7c3Ryb2tlLXdpZHRoOjEuMDsiLz48cGF0aCBkPSJNNzQ1LjYyNSw2OTAuNSBMNzQ1LjYyNSw2ODguNzUgTDc0MC4zMTI1LDY4OC43NSBRNzQwLjMxMjUsNjg4Ljc1IDc0MC4zMTI1LDY4NS4xODc1IEw3NDQuNTYyNSw2ODUuMTg3NSBMNzQ0LjU2MjUsNjgzLjQzNzUgTDc0MC4zMTI1LDY4My40Mzc1IEw3NDAuMzEyNSw2ODAuOTM3NSBMNzQ1LjYyNSw2ODAuOTM3NSBMNzQ1LjYyNSw2NzkuMTg3NSBMNzM4LjU2MjUsNjc5LjE4NzUgUTczOC41NjI1LDY3OS4xODc1IDczOC41NjI1LDY5MC41IEw3NDUuNjI1LDY5MC41IFogIiBmaWxsPSIjMDAwMDAwIi8+PHRleHQgZmlsbD0iIzAwMDAwMCIgZm9udC1mYW1pbHk9InNhbnMtc2VyaWYiIGZvbnQtc2l6ZT0iMTQiIGxlbmd0aEFkanVzdD0ic3BhY2luZyIgdGV4dExlbmd0aD0iNzciIHg9Ijc1NiIgeT0iNjkwLjI0MjIiPkNvbnRlbnRUeXBlPC90ZXh0PjxsaW5lIHN0eWxlPSJzdHJva2U6IzE4MTgxODtzdHJva2Utd2lkdGg6MC41OyIgeDE9IjcyOCIgeDI9IjgzNSIgeTE9IjcwMC41IiB5Mj0iNzAwLjUiLz48dGV4dCBmaWxsPSIjMDAwMDAwIiBmb250LWZhbWlseT0ic2Fucy1zZXJpZiIgZm9udC1zaXplPSIxNCIgbGVuZ3RoQWRqdXN0PSJzcGFjaW5nIiB0ZXh0TGVuZ3RoPSI0OSIgeD0iNzMzIiB5PSI3MTcuNzM0NCI+TEVDVFVSRTwvdGV4dD48dGV4dCBmaWxsPSIjMDAwMDAwIiBmb250LWZhbWlseT0ic2Fucy1zZXJpZiIgZm9udC1zaXplPSIxNCIgbGVuZ3RoQWRqdXN0PSJzcGFjaW5nIiB0ZXh0TGVuZ3RoPSIzNSIgeD0iNzMzIiB5PSI3MzIuNzE4OCI+VklERU88L3RleHQ+PHRleHQgZmlsbD0iIzAwMDAwMCIgZm9udC1mYW1pbHk9InNhbnMtc2VyaWYiIGZvbnQtc2l6ZT0iMTQiIGxlbmd0aEFkanVzdD0ic3BhY2luZyIgdGV4dExlbmd0aD0iNTYiIHg9IjczMyIgeT0iNzQ3LjcwMzEiPkRPQ1VNRU5UPC90ZXh0PjxsaW5lIHN0eWxlPSJzdHJva2U6IzE4MTgxODtzdHJva2Utd2lkdGg6MC41OyIgeDE9IjcyOCIgeDI9IjgzNSIgeTE9Ijc1My40NTMxIiB5Mj0iNzUzLjQ1MzEiLz48L2c+PCEtLWNsYXNzIFF1ZXN0aW9uVHlwZS0tPjxnIGlkPSJlbGVtX1F1ZXN0aW9uVHlwZSI+PHJlY3QgY29kZUxpbmU9IjExOSIgZmlsbD0iI0YxRjFGMSIgaGVpZ2h0PSI3Ny45Njg4IiBpZD0iUXVlc3Rpb25UeXBlIiByeD0iMi41IiByeT0iMi41IiBzdHlsZT0ic3Ryb2tlOiMxODE4MTg7c3Ryb2tlLXdpZHRoOjAuNTsiIHdpZHRoPSIxMTciIHg9IjcwIiB5PSIyNjUiLz48ZWxsaXBzZSBjeD0iODUuNDUiIGN5PSIyODEiIGZpbGw9IiNFQjkzN0YiIHJ4PSIxMSIgcnk9IjExIiBzdHlsZT0ic3Ryb2tlOiMxODE4MTg7c3Ryb2tlLXdpZHRoOjEuMDsiLz48cGF0aCBkPSJNODkuMDc1LDI4NyBMODkuMDc1LDI4NS4yNSBMODMuNzYyNSwyODUuMjUgUTgzLjc2MjUsMjg1LjI1IDgzLjc2MjUsMjgxLjY4NzUgTDg4LjAxMjUsMjgxLjY4NzUgTDg4LjAxMjUsMjc5LjkzNzUgTDgzLjc2MjUsMjc5LjkzNzUgTDgzLjc2MjUsMjc3LjQzNzUgTDg5LjA3NSwyNzcuNDM3NSBMODkuMDc1LDI3NS42ODc1IEw4Mi4wMTI1LDI3NS42ODc1IFE4Mi4wMTI1LDI3NS42ODc1IDgyLjAxMjUsMjg3IEw4OS4wNzUsMjg3IFogIiBmaWxsPSIjMDAwMDAwIi8+PHRleHQgZmlsbD0iIzAwMDAwMCIgZm9udC1mYW1pbHk9InNhbnMtc2VyaWYiIGZvbnQtc2l6ZT0iMTQiIGxlbmd0aEFkanVzdD0ic3BhY2luZyIgdGV4dExlbmd0aD0iODQiIHg9Ijk5LjU1IiB5PSIyODYuNzQyMiI+UXVlc3Rpb25UeXBlPC90ZXh0PjxsaW5lIHN0eWxlPSJzdHJva2U6IzE4MTgxODtzdHJva2Utd2lkdGg6MC41OyIgeDE9IjcxIiB4Mj0iMTg2IiB5MT0iMjk3IiB5Mj0iMjk3Ii8+PHRleHQgZmlsbD0iIzAwMDAwMCIgZm9udC1mYW1pbHk9InNhbnMtc2VyaWYiIGZvbnQtc2l6ZT0iMTQiIGxlbmd0aEFkanVzdD0ic3BhY2luZyIgdGV4dExlbmd0aD0iMTA1IiB4PSI3NiIgeT0iMzE0LjIzNDQiPk1VTFRJUExFX0NIT0lDRTwvdGV4dD48dGV4dCBmaWxsPSIjMDAwMDAwIiBmb250LWZhbWlseT0ic2Fucy1zZXJpZiIgZm9udC1zaXplPSIxNCIgbGVuZ3RoQWRqdXN0PSJzcGFjaW5nIiB0ZXh0TGVuZ3RoPSI4NCIgeD0iNzYiIHk9IjMyOS4yMTg4Ij5TSE9SVF9BTlNXRVI8L3RleHQ+PGxpbmUgc3R5bGU9InN0cm9rZTojMTgxODE4O3N0cm9rZS13aWR0aDowLjU7IiB4MT0iNzEiIHgyPSIxODYiIHkxPSIzMzQuOTY4OCIgeTI9IjMzNC45Njg4Ii8+PC9nPjwhLS1jbGFzcyBDb250ZW50LS0+PGcgaWQ9ImVsZW1fQ29udGVudCI+PHJlY3QgZmlsbD0iI0YxRjFGMSIgaGVpZ2h0PSI0OCIgaWQ9IkNvbnRlbnQiIHJ4PSIyLjUiIHJ5PSIyLjUiIHN0eWxlPSJzdHJva2U6IzE4MTgxODtzdHJva2Utd2lkdGg6MC41OyIgd2lkdGg9IjgxIiB4PSI2NTkiIHk9IjUyMyIvPjxlbGxpcHNlIGN4PSI2NzQiIGN5PSI1MzkiIGZpbGw9IiNBREQxQjIiIHJ4PSIxMSIgcnk9IjExIiBzdHlsZT0ic3Ryb2tlOiMxODE4MTg7c3Ryb2tlLXdpZHRoOjEuMDsiLz48cGF0aCBkPSJNNjcxLjYyNSw1NDMuMjUgTDY3MS42MjUsNTQ1IEw2NzYuNTYyNSw1NDUgTDY3Ni41NjI1LDU0My4yNSBMNjcxLjYyNSw1NDMuMjUgWiBNNjcyLjMxMjUsNTQzLjkzNzUgUTY3Mi4zMTI1LDU0My45Mzc1IDY3Mi4zMTI1LDUzNC43NSBMNjcwLjU2MjUsNTM0Ljc1IFE2NzAuNTYyNSw1MzQuNzUgNjcwLjU2MjUsNTQzLjkzNzUgTDY3Mi4zMTI1LDU0My45Mzc1IFogTTY3NS44NzUsNTQzLjkzNzUgTDY3Ny42MjUsNTQzLjkzNzUgUTY3Ny42MjUsNTQzLjkzNzUgNjc3LjYyNSw1NDEuMTI1IEw2NzUuODc1LDU0MS4xMjUgUTY3NS44NzUsNTQxLjEyNSA2NzUuODc1LDU0My45Mzc1IFogTTY3NS44NzUsNTM0Ljc1IFE2NzUuODc1LDUzNC43NSA2NzUuODc1LDUzNy41NjI1IEw2NzcuNjI1LDUzNy41NjI1IFE2NzcuNjI1LDUzNy41NjI1IDY3Ny42MjUsNTM0Ljc1IEw2NzUuODc1LDUzNC43NSBaIE02NzEuNjI1LDUzNS40Mzc1IEw2NzYuNTYyNSw1MzUuNDM3NSBMNjc2LjU2MjUsNTMzLjY4NzUgTDY3MS42MjUsNTMzLjY4NzUgTDY3MS42MjUsNTM1LjQzNzUgWiAiIGZpbGw9IiMwMDAwMDAiLz48dGV4dCBmaWxsPSIjMDAwMDAwIiBmb250LWZhbWlseT0ic2Fucy1zZXJpZiIgZm9udC1zaXplPSIxNCIgbGVuZ3RoQWRqdXN0PSJzcGFjaW5nIiB0ZXh0TGVuZ3RoPSI0OSIgeD0iNjg4IiB5PSI1NDQuNzQyMiI+Q29udGVudDwvdGV4dD48bGluZSBzdHlsZT0ic3Ryb2tlOiMxODE4MTg7c3Ryb2tlLXdpZHRoOjAuNTsiIHgxPSI2NjAiIHgyPSI3MzkiIHkxPSI1NTUiIHkyPSI1NTUiLz48bGluZSBzdHlsZT0ic3Ryb2tlOiMxODE4MTg7c3Ryb2tlLXdpZHRoOjAuNTsiIHgxPSI2NjAiIHgyPSI3MzkiIHkxPSI1NjMiIHkyPSI1NjMiLz48L2c+PCEtLWNsYXNzIFF1aXotLT48ZyBpZD0iZWxlbV9RdWl6Ij48cmVjdCBmaWxsPSIjRjFGMUYxIiBoZWlnaHQ9IjQ4IiBpZD0iUXVpeiIgcng9IjIuNSIgcnk9IjIuNSIgc3R5bGU9InN0cm9rZTojMTgxODE4O3N0cm9rZS13aWR0aDowLjU7IiB3aWR0aD0iNjAiIHg9IjMxOS41IiB5PSI1MjMiLz48ZWxsaXBzZSBjeD0iMzM0LjUiIGN5PSI1MzkiIGZpbGw9IiNBREQxQjIiIHJ4PSIxMSIgcnk9IjExIiBzdHlsZT0ic3Ryb2tlOiMxODE4MTg7c3Ryb2tlLXdpZHRoOjEuMDsiLz48cGF0aCBkPSJNMzMyLjEyNSw1NDMuMjUgTDMzMi4xMjUsNTQ1IEwzMzcuMDYyNSw1NDUgTDMzNy4wNjI1LDU0My4yNSBMMzMyLjEyNSw1NDMuMjUgWiBNMzMyLjgxMjUsNTQzLjkzNzUgUTMzMi44MTI1LDU0My45Mzc1IDMzMi44MTI1LDUzNC43NSBMMzMxLjA2MjUsNTM0Ljc1IFEzMzEuMDYyNSw1MzQuNzUgMzMxLjA2MjUsNTQzLjkzNzUgTDMzMi44MTI1LDU0My45Mzc1IFogTTMzNi4zNzUsNTQzLjkzNzUgTDMzOC4xMjUsNTQzLjkzNzUgUTMzOC4xMjUsNTQzLjkzNzUgMzM4LjEyNSw1NDEuMTI1IEwzMzYuMzc1LDU0MS4xMjUgUTMzNi4zNzUsNTQxLjEyNSAzMzYuMzc1LDU0My45Mzc1IFogTTMzNi4zNzUsNTM0Ljc1IFEzMzYuMzc1LDUzNC43NSAzMzYuMzc1LDUzNy41NjI1IEwzMzguMTI1LDUzNy41NjI1IFEzMzguMTI1LDUzNy41NjI1IDMzOC4xMjUsNTM0Ljc1IEwzMzYuMzc1LDUzNC43NSBaIE0zMzIuMTI1LDUzNS40Mzc1IEwzMzcuMDYyNSw1MzUuNDM3NSBMMzM3LjA2MjUsNTMzLjY4NzUgTDMzMi4xMjUsNTMzLjY4NzUgTDMzMi4xMjUsNTM1LjQzNzUgWiAiIGZpbGw9IiMwMDAwMDAiLz48dGV4dCBmaWxsPSIjMDAwMDAwIiBmb250LWZhbWlseT0ic2Fucy1zZXJpZiIgZm9udC1zaXplPSIxNCIgbGVuZ3RoQWRqdXN0PSJzcGFjaW5nIiB0ZXh0TGVuZ3RoPSIyOCIgeD0iMzQ4LjUiIHk9IjU0NC43NDIyIj5RdWl6PC90ZXh0PjxsaW5lIHN0eWxlPSJzdHJva2U6IzE4MTgxODtzdHJva2Utd2lkdGg6MC41OyIgeDE9IjMyMC41IiB4Mj0iMzc4LjUiIHkxPSI1NTUiIHkyPSI1NTUiLz48bGluZSBzdHlsZT0ic3Ryb2tlOiMxODE4MTg7c3Ryb2tlLXdpZHRoOjAuNTsiIHgxPSIzMjAuNSIgeDI9IjM3OC41IiB5MT0iNTYzIiB5Mj0iNTYzIi8+PC9nPjwhLS1jbGFzcyBRdWVzdGlvbi0tPjxnIGlkPSJlbGVtX1F1ZXN0aW9uIj48cmVjdCBmaWxsPSIjRjFGMUYxIiBoZWlnaHQ9IjQ4IiBpZD0iUXVlc3Rpb24iIHJ4PSIyLjUiIHJ5PSIyLjUiIHN0eWxlPSJzdHJva2U6IzE4MTgxODtzdHJva2Utd2lkdGg6MC41OyIgd2lkdGg9Ijg4IiB4PSIyMjIuNSIgeT0iMjgwIi8+PGVsbGlwc2UgY3g9IjIzNy41IiBjeT0iMjk2IiBmaWxsPSIjQUREMUIyIiByeD0iMTEiIHJ5PSIxMSIgc3R5bGU9InN0cm9rZTojMTgxODE4O3N0cm9rZS13aWR0aDoxLjA7Ii8+PHBhdGggZD0iTTIzNS4xMjUsMzAwLjI1IEwyMzUuMTI1LDMwMiBMMjQwLjA2MjUsMzAyIEwyNDAuMDYyNSwzMDAuMjUgTDIzNS4xMjUsMzAwLjI1IFogTTIzNS44MTI1LDMwMC45Mzc1IFEyMzUuODEyNSwzMDAuOTM3NSAyMzUuODEyNSwyOTEuNzUgTDIzNC4wNjI1LDI5MS43NSBRMjM0LjA2MjUsMjkxLjc1IDIzNC4wNjI1LDMwMC45Mzc1IEwyMzUuODEyNSwzMDAuOTM3NSBaIE0yMzkuMzc1LDMwMC45Mzc1IEwyNDEuMTI1LDMwMC45Mzc1IFEyNDEuMTI1LDMwMC45Mzc1IDI0MS4xMjUsMjk4LjEyNSBMMjM5LjM3NSwyOTguMTI1IFEyMzkuMzc1LDI5OC4xMjUgMjM5LjM3NSwzMDAuOTM3NSBaIE0yMzkuMzc1LDI5MS43NSBRMjM5LjM3NSwyOTEuNzUgMjM5LjM3NSwyOTQuNTYyNSBMMjQxLjEyNSwyOTQuNTYyNSBRMjQxLjEyNSwyOTQuNTYyNSAyNDEuMTI1LDI5MS43NSBMMjM5LjM3NSwyOTEuNzUgWiBNMjM1LjEyNSwyOTIuNDM3NSBMMjQwLjA2MjUsMjkyLjQzNzUgTDI0MC4wNjI1LDI5MC42ODc1IEwyMzUuMTI1LDI5MC42ODc1IEwyMzUuMTI1LDI5Mi40Mzc1IFogIiBmaWxsPSIjMDAwMDAwIi8+PHRleHQgZmlsbD0iIzAwMDAwMCIgZm9udC1mYW1pbHk9InNhbnMtc2VyaWYiIGZvbnQtc2l6ZT0iMTQiIGxlbmd0aEFkanVzdD0ic3BhY2luZyIgdGV4dExlbmd0aD0iNTYiIHg9IjI1MS41IiB5PSIzMDEuNzQyMiI+UXVlc3Rpb248L3RleHQ+PGxpbmUgc3R5bGU9InN0cm9rZTojMTgxODE4O3N0cm9rZS13aWR0aDowLjU7IiB4MT0iMjIzLjUiIHgyPSIzMDkuNSIgeTE9IjMxMiIgeTI9IjMxMiIvPjxsaW5lIHN0eWxlPSJzdHJva2U6IzE4MTgxODtzdHJva2Utd2lkdGg6MC41OyIgeDE9IjIyMy41IiB4Mj0iMzA5LjUiIHkxPSIzMjAiIHkyPSIzMjAiLz48L2c+PCEtLWxpbmsgVXNlciB0byBSb2xlLS0+PGcgaWQ9ImxpbmtfVXNlcl9Sb2xlIj48cGF0aCBjb2RlTGluZT0iMTI1IiBkPSJNMTM5MS45Myw0MzMuMjYgQzE0MjUuNzksNDU4LjQ0IDE0NTkuMDMsNDgzLjE3IDE0ODUuNzIsNTAzLjAyICIgZmlsbD0ibm9uZSIgaWQ9IlVzZXItdG8tUm9sZSIgc3R5bGU9InN0cm9rZTojMTgxODE4O3N0cm9rZS13aWR0aDoxLjA7Ii8+PGxpbmUgc3R5bGU9InN0cm9rZTojMTgxODE4O3N0cm9rZS13aWR0aDoxLjA7IiB4MT0iMTQ4NS45NDEyIiB4Mj0iMTQ5NS45NDExIiB5MT0iNTAzLjE4NTIiIHkyPSI1MDMuMTQ1OSIvPjxsaW5lIHN0eWxlPSJzdHJva2U6IzE4MTgxODtzdHJva2Utd2lkdGg6MS4wOyIgeDE9IjE0ODUuOTQxMiIgeDI9IjE0ODguNzc4OSIgeTE9IjUwMy4xODUyIiB5Mj0iNTEyLjc3NDEiLz48bGluZSBzdHlsZT0ic3Ryb2tlOiMxODE4MTg7c3Ryb2tlLXdpZHRoOjEuMDsiIHgxPSIxNDg1Ljk0MTIiIHgyPSIxNDkyLjM2IiB5MT0iNTAzLjE4NTIiIHkyPSI1MDcuOTYiLz48bGluZSBzdHlsZT0ic3Ryb2tlOiMxODE4MTg7c3Ryb2tlLXdpZHRoOjEuMDsiIHgxPSIxNDg2LjcyMzkiIHgyPSIxNDgxLjk0OTEiIHkxPSI0OTguNzgyMSIgeTI9IjUwNS4yMDA5Ii8+PC9nPjwhLS1saW5rIFVzZXIgdG8gUHJvZ3Jlc3MtLT48ZyBpZD0ibGlua19Vc2VyX1Byb2dyZXNzIj48cGF0aCBjb2RlTGluZT0iMTI2IiBkPSJNMTEwMC42OSw0MzMuMjYgQzEwODcuNzYsNDUxLjQ5IDEwNzUuOCw0NjkuNDggMTA2Ni4wMyw0ODUuNTYgIiBmaWxsPSJub25lIiBpZD0iVXNlci10by1Qcm9ncmVzcyIgc3R5bGU9InN0cm9rZTojMTgxODE4O3N0cm9rZS13aWR0aDoxLjA7Ii8+PGxpbmUgc3R5bGU9InN0cm9rZTojMTgxODE4O3N0cm9rZS13aWR0aDoxLjA7IiB4MT0iMTA2NS43OTkyIiB4Mj0iMTA2Ni44NTI1IiB5MT0iNDg1LjkzIiB5Mj0iNDk1Ljg3NDQiLz48bGluZSBzdHlsZT0ic3Ryb2tlOiMxODE4MTg7c3Ryb2tlLXdpZHRoOjEuMDsiIHgxPSIxMDY1Ljc5OTIiIHgyPSIxMDU2LjU0NzUiIHkxPSI0ODUuOTMiIHkyPSI0ODkuNzI1NiIvPjxsaW5lIHN0eWxlPSJzdHJva2U6IzE4MTgxODtzdHJva2Utd2lkdGg6MS4wOyIgeDE9IjEwNjUuNzk5MiIgeDI9IjEwNjEuNyIgeTE9IjQ4NS45MyIgeTI9IjQ5Mi44Ii8+PGxpbmUgc3R5bGU9InN0cm9rZTojMTgxODE4O3N0cm9rZS13aWR0aDoxLjA7IiB4MT0iMTA3MC4yNTg5IiB4Mj0iMTA2My4zODg5IiB5MT0iNDg2LjI2MjEiIHkyPSI0ODIuMTYyOSIvPjwvZz48IS0tbGluayBVc2VyIHRvIFByb2dyZXNzLS0+PGcgaWQ9ImxpbmtfVXNlcl9Qcm9ncmVzcyI+PHBhdGggY29kZUxpbmU9IjE0MiIgZD0iTTExMjYuOSw0MzMuMjYgQzExMTMuNjIsNDUxLjY2IDExMDAuNTEsNDY5LjgxIDEwODguODMsNDg1Ljk5ICIgZmlsbD0ibm9uZSIgaWQ9IlVzZXItdG8tUHJvZ3Jlc3MtMSIgc3R5bGU9InN0cm9rZTojMTgxODE4O3N0cm9rZS13aWR0aDoxLjA7Ii8+PGxpbmUgc3R5bGU9InN0cm9rZTojMTgxODE4O3N0cm9rZS13aWR0aDoxLjA7IiB4MT0iMTA4OC41OTUiIHgyPSIxMDg4Ljc3MzUiIHkxPSI0ODYuMzE1MyIgeTI9IjQ5Ni4zMTM3Ii8+PGxpbmUgc3R5bGU9InN0cm9rZTojMTgxODE4O3N0cm9rZS13aWR0aDoxLjA7IiB4MT0iMTA4OC41OTUiIHgyPSIxMDc5LjA0NjUiIHkxPSI0ODYuMzE1MyIgeTI9IjQ4OS4yODYzIi8+PGxpbmUgc3R5bGU9InN0cm9rZTojMTgxODE4O3N0cm9rZS13aWR0aDoxLjA7IiB4MT0iMTA4OC41OTUiIHgyPSIxMDgzLjkxIiB5MT0iNDg2LjMxNTMiIHkyPSI0OTIuOCIvPjxsaW5lIHN0eWxlPSJzdHJva2U6IzE4MTgxODtzdHJva2Utd2lkdGg6MS4wOyIgeDE9IjEwOTMuMDA4NSIgeDI9IjEwODYuNTIzOSIgeTE9IjQ4Ny4wMzY2IiB5Mj0iNDgyLjM1MTciLz48L2c+PCEtLWxpbmsgVXNlciB0byBQcm9ncmVzcy0tPjxnIGlkPSJsaW5rX1VzZXJfUHJvZ3Jlc3MiPjxwYXRoIGNvZGVMaW5lPSIxNDUiIGQ9Ik0xMTUzLjEsNDMzLjI2IEMxMTM5LjQ3LDQ1MS44MiAxMTI1LjE4LDQ3MC4xMyAxMTExLjUyLDQ4Ni40MiAiIGZpbGw9Im5vbmUiIGlkPSJVc2VyLXRvLVByb2dyZXNzLTIiIHN0eWxlPSJzdHJva2U6IzE4MTgxODtzdHJva2Utd2lkdGg6MS4wOyIvPjxsaW5lIHN0eWxlPSJzdHJva2U6IzE4MTgxODtzdHJva2Utd2lkdGg6MS4wOyIgeDE9IjExMTEuMjgzMyIgeDI9IjExMTAuNjg2NyIgeTE9IjQ4Ni42OTc4IiB5Mj0iNDk2LjY4Ii8+PGxpbmUgc3R5bGU9InN0cm9rZTojMTgxODE4O3N0cm9rZS13aWR0aDoxLjA7IiB4MT0iMTExMS4yODMzIiB4Mj0iMTEwMS41MzMzIiB5MT0iNDg2LjY5NzgiIHkyPSI0ODguOTIiLz48bGluZSBzdHlsZT0ic3Ryb2tlOiMxODE4MTg7c3Ryb2tlLXdpZHRoOjEuMDsiIHgxPSIxMTExLjI4MzMiIHgyPSIxMTA2LjExIiB5MT0iNDg2LjY5NzgiIHkyPSI0OTIuOCIvPjxsaW5lIHN0eWxlPSJzdHJva2U6IzE4MTgxODtzdHJva2Utd2lkdGg6MS4wOyIgeDE9IjExMTUuNjI3NyIgeDI9IjExMDkuNTI1NSIgeTE9IjQ4Ny43NTg5IiB5Mj0iNDgyLjU4NTYiLz48L2c+PCEtLWxpbmsgVXNlciB0byBBc3NpZ25tZW50LS0+PGcgaWQ9ImxpbmtfVXNlcl9Bc3NpZ25tZW50Ij48cGF0aCBjb2RlTGluZT0iMTI3IiBkPSJNMTIzNS45OSw0MzMuMDIgQzEyMzYuMTYsNDkxLjgxIDEyMjQuNjcsNTU3Ljg5IDExODEuNSw2MDEgQzExMDYuNjksNjc1LjcyIDgxNC4yNSw2NDYuNjMgNzA5LjUsNjYxIEM3MDYuNTEsNjYxLjQxIDcwMy41LDY2MS44MiA3MDAuNDgsNjYyLjI0ICIgZmlsbD0ibm9uZSIgaWQ9IlVzZXItdG8tQXNzaWdubWVudCIgc3R5bGU9InN0cm9rZTojMTgxODE4O3N0cm9rZS13aWR0aDoxLjA7Ii8+PGxpbmUgc3R5bGU9InN0cm9rZTojMTgxODE4O3N0cm9rZS13aWR0aDoxLjA7IiB4MT0iNzAwLjM5NiIgeDI9IjY5My4yODQiIHkxPSI2NjIuMjY0NiIgeTI9IjY2OS4yOTQ1Ii8+PGxpbmUgc3R5bGU9InN0cm9rZTojMTgxODE4O3N0cm9rZS13aWR0aDoxLjA7IiB4MT0iNzAwLjM5NiIgeDI9IjY5MS42NTYiIHkxPSI2NjIuMjY0NiIgeTI9IjY1Ny40MDU1Ii8+PGxpbmUgc3R5bGU9InN0cm9rZTojMTgxODE4O3N0cm9rZS13aWR0aDoxLjA7IiB4MT0iNzAwLjM5NiIgeDI9IjY5Mi40NyIgeTE9IjY2Mi4yNjQ2IiB5Mj0iNjYzLjM1Ii8+PGxpbmUgc3R5bGU9InN0cm9rZTojMTgxODE4O3N0cm9rZS13aWR0aDoxLjA7IiB4MT0iNzAyLjkyMDIiIHgyPSI3MDEuODM0OSIgeTE9IjY2NS45NTYzIiB5Mj0iNjU4LjAzMDMiLz48L2c+PCEtLWxpbmsgVXNlciB0byBQb3N0LS0+PGcgaWQ9ImxpbmtfVXNlcl9Qb3N0Ij48cGF0aCBjb2RlTGluZT0iMTI4IiBkPSJNMTUzNC41Niw0MDkuNzEgQzE1NjYuODgsNDMyLjM3IDE1OTUuNSw0NTkuODEgMTYxNi41LDQ5MyBDMTY0Mi4xNyw1MzMuNTYgMTY0NC4yNiw1NjEuODQgMTYxNi41LDYwMSBDMTU2MC42Myw2NzkuODEgMTQ0NS4zLDcwNC4wNyAxMzY4LjkyLDcxMS4zICIgZmlsbD0ibm9uZSIgaWQ9IlVzZXItdG8tUG9zdCIgc3R5bGU9InN0cm9rZTojMTgxODE4O3N0cm9rZS13aWR0aDoxLjA7Ii8+PGxpbmUgc3R5bGU9InN0cm9rZTojMTgxODE4O3N0cm9rZS13aWR0aDoxLjA7IiB4MT0iMTM2OC42OTkyIiB4Mj0iMTM2MS4yNTU4IiB5MT0iNzExLjMxODkiIHkyPSI3MTcuOTk2OSIvPjxsaW5lIHN0eWxlPSJzdHJva2U6IzE4MTgxODtzdHJva2Utd2lkdGg6MS4wOyIgeDE9IjEzNjguNjk5MiIgeDI9IjEzNjAuMjA0MiIgeTE9IjcxMS4zMTg5IiB5Mj0iNzA2LjA0MzEiLz48bGluZSBzdHlsZT0ic3Ryb2tlOiMxODE4MTg7c3Ryb2tlLXdpZHRoOjEuMDsiIHgxPSIxMzY4LjY5OTIiIHgyPSIxMzYwLjczIiB5MT0iNzExLjMxODkiIHkyPSI3MTIuMDIiLz48bGluZSBzdHlsZT0ic3Ryb2tlOiMxODE4MTg7c3Ryb2tlLXdpZHRoOjEuMDsiIHgxPSIxMzcxLjA0MjEiIHgyPSIxMzcwLjM0MSIgeTE9IjcxNS4xMjgzIiB5Mj0iNzA3LjE1OTEiLz48L2c+PCEtLWxpbmsgVXNlciB0byBSZXBvcnQtLT48ZyBpZD0ibGlua19Vc2VyX1JlcG9ydCI+PHBhdGggY29kZUxpbmU9IjEyOSIgZD0iTTEyOTUuMDcsNDMzLjI2IEMxMzA1LjgxLDQ1MS40OSAxMzE2LjQxLDQ2OS40OCAxMzI1Ljg5LDQ4NS41NiAiIGZpbGw9Im5vbmUiIGlkPSJVc2VyLXRvLVJlcG9ydCIgc3R5bGU9InN0cm9rZTojMTgxODE4O3N0cm9rZS13aWR0aDoxLjA7Ii8+PGxpbmUgc3R5bGU9InN0cm9rZTojMTgxODE4O3N0cm9rZS13aWR0aDoxLjA7IiB4MT0iMTMyNi4xMDUxIiB4Mj0iMTMzNS4zMzIyIiB5MT0iNDg1LjkwMzgiIHkyPSI0ODkuNzU4OCIvPjxsaW5lIHN0eWxlPSJzdHJva2U6IzE4MTgxODtzdHJva2Utd2lkdGg6MS4wOyIgeDE9IjEzMjYuMTA1MSIgeDI9IjEzMjQuOTg3OCIgeTE9IjQ4NS45MDM4IiB5Mj0iNDk1Ljg0MTIiLz48bGluZSBzdHlsZT0ic3Ryb2tlOiMxODE4MTg7c3Ryb2tlLXdpZHRoOjEuMDsiIHgxPSIxMzI2LjEwNTEiIHgyPSIxMzMwLjE2IiB5MT0iNDg1LjkwMzgiIHkyPSI0OTIuOCIvPjxsaW5lIHN0eWxlPSJzdHJva2U6IzE4MTgxODtzdHJva2Utd2lkdGg6MS4wOyIgeDE9IjEzMjguNTM5NSIgeDI9IjEzMjEuNjQzMyIgeTE9IjQ4Mi4xNTIzIiB5Mj0iNDg2LjIwNzIiLz48L2c+PCEtLWxpbmsgQWRtaW4gdG8gVXNlci0tPjxnIGlkPSJsaW5rX0FkbWluX1VzZXIiPjxwYXRoIGNvZGVMaW5lPSIxMzAiIGQ9Ik0xMDQ2LjU4LDkyLjUyIEMxMDYyLjkzLDExMi40MiAxMDg1LjUzLDEzOS45MyAxMTA5LDE2OC41ICIgZmlsbD0ibm9uZSIgaWQ9IkFkbWluLXRvLVVzZXIiIHN0eWxlPSJzdHJva2U6IzE4MTgxODtzdHJva2Utd2lkdGg6MS4wOyIvPjxsaW5lIHN0eWxlPSJzdHJva2U6IzE4MTgxODtzdHJva2Utd2lkdGg6MS4wOyIgeDE9IjExMDkuMjUyMyIgeDI9IjExMTguOTcwMyIgeTE9IjE2OC44MjYyIiB5Mj0iMTcxLjE4NDMiLz48bGluZSBzdHlsZT0ic3Ryb2tlOiMxODE4MTg7c3Ryb2tlLXdpZHRoOjEuMDsiIHgxPSIxMTA5LjI1MjMiIHgyPSIxMTA5LjcwOTciIHkxPSIxNjguODI2MiIgeTI9IjE3OC44MTU3Ii8+PGxpbmUgc3R5bGU9InN0cm9rZTojMTgxODE4O3N0cm9rZS13aWR0aDoxLjA7IiB4MT0iMTEwOS4yNTIzIiB4Mj0iMTExNC4zNCIgeTE9IjE2OC44MjYyIiB5Mj0iMTc1Ii8+PGxpbmUgc3R5bGU9InN0cm9rZTojMTgxODE4O3N0cm9rZS13aWR0aDoxLjA7IiB4MT0iMTExMS4wNjczIiB4Mj0iMTEwNC44OTM1IiB5MT0iMTY0LjczODkiIHkyPSIxNjkuODI2NiIvPjwvZz48IS0tbGluayBJbnN0cnVjdG9yIHRvIFVzZXItLT48ZyBpZD0ibGlua19JbnN0cnVjdG9yX1VzZXIiPjxwYXRoIGNvZGVMaW5lPSIxMzEiIGQ9Ik0xMjE5LjUsMTAwLjE5IEMxMjE5LjUsMTE4LjczIDEyMTkuNSwxNDIuMjUgMTIxOS41LDE2Ni42NiAiIGZpbGw9Im5vbmUiIGlkPSJJbnN0cnVjdG9yLXRvLVVzZXIiIHN0eWxlPSJzdHJva2U6IzE4MTgxODtzdHJva2Utd2lkdGg6MS4wOyIvPjxsaW5lIHN0eWxlPSJzdHJva2U6IzE4MTgxODtzdHJva2Utd2lkdGg6MS4wOyIgeDE9IjEyMTkuNSIgeDI9IjEyMjUuNSIgeTE9IjE2Ni45NiIgeTI9IjE3NC45NiIvPjxsaW5lIHN0eWxlPSJzdHJva2U6IzE4MTgxODtzdHJva2Utd2lkdGg6MS4wOyIgeDE9IjEyMTkuNSIgeDI9IjEyMTMuNSIgeTE9IjE2Ni45NiIgeTI9IjE3NC45NiIvPjxsaW5lIHN0eWxlPSJzdHJva2U6IzE4MTgxODtzdHJva2Utd2lkdGg6MS4wOyIgeDE9IjEyMTkuNSIgeDI9IjEyMTkuNSIgeTE9IjE2Ni45NiIgeTI9IjE3NC45NiIvPjxsaW5lIHN0eWxlPSJzdHJva2U6IzE4MTgxODtzdHJva2Utd2lkdGg6MS4wOyIgeDE9IjEyMjMuNSIgeDI9IjEyMTUuNSIgeTE9IjE2NC45NiIgeTI9IjE2NC45NiIvPjwvZz48IS0tbGluayBTdHVkZW50IHRvIFVzZXItLT48ZyBpZD0ibGlua19TdHVkZW50X1VzZXIiPjxwYXRoIGNvZGVMaW5lPSIxMzIiIGQ9Ik0xNDM1Ljc4LDEwMC4xOSBDMTQxNS4zMiwxMTkuMzcgMTM4OS4xNywxNDMuOSAxMzYyLjE3LDE2OS4yMSAiIGZpbGw9Im5vbmUiIGlkPSJTdHVkZW50LXRvLVVzZXIiIHN0eWxlPSJzdHJva2U6IzE4MTgxODtzdHJva2Utd2lkdGg6MS4wOyIvPjxsaW5lIHN0eWxlPSJzdHJva2U6IzE4MTgxODtzdHJva2Utd2lkdGg6MS4wOyIgeDE9IjEzNjEuODcyNyIgeDI9IjEzNjAuMTQ2NSIgeTE9IjE2OS40ODQ3IiB5Mj0iMTc5LjMzNDUiLz48bGluZSBzdHlsZT0ic3Ryb2tlOiMxODE4MTg7c3Ryb2tlLXdpZHRoOjEuMDsiIHgxPSIxMzYxLjg3MjciIHgyPSIxMzUxLjkzMzUiIHkxPSIxNjkuNDg0NyIgeTI9IjE3MC41ODU1Ii8+PGxpbmUgc3R5bGU9InN0cm9rZTojMTgxODE4O3N0cm9rZS13aWR0aDoxLjA7IiB4MT0iMTM2MS44NzI3IiB4Mj0iMTM1Ni4wNCIgeTE9IjE2OS40ODQ3IiB5Mj0iMTc0Ljk2Ii8+PGxpbmUgc3R5bGU9InN0cm9rZTojMTgxODE4O3N0cm9rZS13aWR0aDoxLjA7IiB4MT0iMTM2Ni4wNjg2IiB4Mj0iMTM2MC41OTMyIiB5MT0iMTcxLjAzMjIiIHkyPSIxNjUuMTk5NSIvPjwvZz48IS0tbGluayBVc2VyIHRvIEdvYWwtLT48ZyBpZD0ibGlua19Vc2VyX0dvYWwiPjxwYXRoIGNvZGVMaW5lPSIxMzMiIGQ9Ik0xNTM0LjY1LDQzMC42MSBDMTU4My4wNyw0NTAuOTEgMTYzMi4zLDQ3Mi4xMyAxNjc4LjUsNDkzIEMxNjg1LjAyLDQ5NS45NSAxNjkxLjczLDQ5OS4wNiAxNjk4LjQ1LDUwMi4yNSAiIGZpbGw9Im5vbmUiIGlkPSJVc2VyLXRvLUdvYWwiIHN0eWxlPSJzdHJva2U6IzE4MTgxODtzdHJva2Utd2lkdGg6MS4wOyIvPjxsaW5lIHN0eWxlPSJzdHJva2U6IzE4MTgxODtzdHJva2Utd2lkdGg6MS4wOyIgeDE9IjE2OTguNTI3NCIgeDI9IjE3MDguMzMiIHkxPSI1MDIuMjgiIHkyPSI1MDAuMzAzIi8+PGxpbmUgc3R5bGU9InN0cm9rZTojMTgxODE4O3N0cm9rZS13aWR0aDoxLjA7IiB4MT0iMTY5OC41Mjc0IiB4Mj0iMTcwMy4xNyIgeTE9IjUwMi4yOCIgeTI9IjUxMS4xMzciLz48bGluZSBzdHlsZT0ic3Ryb2tlOiMxODE4MTg7c3Ryb2tlLXdpZHRoOjEuMDsiIHgxPSIxNjk4LjUyNzQiIHgyPSIxNzA1Ljc1IiB5MT0iNTAyLjI4IiB5Mj0iNTA1LjcyIi8+PGxpbmUgc3R5bGU9InN0cm9rZTojMTgxODE4O3N0cm9rZS13aWR0aDoxLjA7IiB4MT0iMTY5OC40NDE3IiB4Mj0iMTY5NS4wMDE3IiB5MT0iNDk3LjgwODciIHkyPSI1MDUuMDMxMyIvPjwvZz48IS0tbGluayBDb3Vyc2UgdG8gQ29udGVudC0tPjxnIGlkPSJsaW5rX0NvdXJzZV9Db250ZW50Ij48cGF0aCBjb2RlTGluZT0iMTM0IiBkPSJNNjQyLjE1LDM5NS43NyBDNjU4LjIzLDQzNy45IDY3Ni4yOSw0ODUuMjEgNjg3Ljc3LDUxNS4yOCAiIGZpbGw9Im5vbmUiIGlkPSJDb3Vyc2UtdG8tQ29udGVudCIgc3R5bGU9InN0cm9rZTojMTgxODE4O3N0cm9rZS13aWR0aDoxLjA7Ii8+PGxpbmUgc3R5bGU9InN0cm9rZTojMTgxODE4O3N0cm9rZS13aWR0aDoxLjA7IiB4MT0iNjg3LjgzMjUiIHgyPSI2OTYuMjk0MiIgeTE9IjUxNS40NDc3IiB5Mj0iNTIwLjc3NjkiLz48bGluZSBzdHlsZT0ic3Ryb2tlOiMxODE4MTg7c3Ryb2tlLXdpZHRoOjEuMDsiIHgxPSI2ODcuODMyNSIgeDI9IjY4NS4wODU4IiB5MT0iNTE1LjQ0NzciIHkyPSI1MjUuMDYzMSIvPjxsaW5lIHN0eWxlPSJzdHJva2U6IzE4MTgxODtzdHJva2Utd2lkdGg6MS4wOyIgeDE9IjY4Ny44MzI1IiB4Mj0iNjkwLjY5IiB5MT0iNTE1LjQ0NzciIHkyPSI1MjIuOTIiLz48bGluZSBzdHlsZT0ic3Ryb2tlOiMxODE4MTg7c3Ryb2tlLXdpZHRoOjEuMDsiIHgxPSI2OTAuODU0MyIgeDI9IjY4My4zODIiIHkxPSI1MTIuMTUwOSIgeTI9IjUxNS4wMDg0Ii8+PC9nPjwhLS1saW5rIENvdXJzZSB0byBRdWl6LS0+PGcgaWQ9ImxpbmtfQ291cnNlX1F1aXoiPjxwYXRoIGNvZGVMaW5lPSIxMzUiIGQ9Ik01MTAuMzMsMzk1Ljc3IEM0NjQuMjYsNDM4LjggNDEyLjQyLDQ4Ny4yMyAzODAuMzUsNTE3LjE4ICIgZmlsbD0ibm9uZSIgaWQ9IkNvdXJzZS10by1RdWl6IiBzdHlsZT0ic3Ryb2tlOiMxODE4MTg7c3Ryb2tlLXdpZHRoOjEuMDsiLz48bGluZSBzdHlsZT0ic3Ryb2tlOiMxODE4MTg7c3Ryb2tlLXdpZHRoOjEuMDsiIHgxPSIzODAuMDU2NSIgeDI9IjM3OC4zMDU0IiB5MT0iNTE3LjQ1OTQiIHkyPSI1MjcuMzA0OSIvPjxsaW5lIHN0eWxlPSJzdHJva2U6IzE4MTgxODtzdHJva2Utd2lkdGg6MS4wOyIgeDE9IjM4MC4wNTY1IiB4Mj0iMzcwLjExNDYiIHkxPSI1MTcuNDU5NCIgeTI9IjUxOC41MzUxIi8+PGxpbmUgc3R5bGU9InN0cm9rZTojMTgxODE4O3N0cm9rZS13aWR0aDoxLjA7IiB4MT0iMzgwLjA1NjUiIHgyPSIzNzQuMjEiIHkxPSI1MTcuNDU5NCIgeTI9IjUyMi45MiIvPjxsaW5lIHN0eWxlPSJzdHJva2U6IzE4MTgxODtzdHJva2Utd2lkdGg6MS4wOyIgeDE9IjM4NC4yNDg1IiB4Mj0iMzc4Ljc4NzkiIHkxPSI1MTkuMDE3NSIgeTI9IjUxMy4xNzEiLz48L2c+PCEtLWxpbmsgQ291cnNlIHRvIEFzc2lnbm1lbnQtLT48ZyBpZD0ibGlua19Db3Vyc2VfQXNzaWdubWVudCI+PHBhdGggY29kZUxpbmU9IjEzNiIgZD0iTTUzNS42LDM5NS44MSBDNTEyLjgzLDQyNi4wNSA0ODguMjEsNDYwLjM1IDQ2Ny41LDQ5MyBDNDM0LjE4LDU0NS41NCA0MDEuMjUsNjA4LjM2IDM3OC42OSw2NTMuNTcgIiBmaWxsPSJub25lIiBpZD0iQ291cnNlLXRvLUFzc2lnbm1lbnQiIHN0eWxlPSJzdHJva2U6IzE4MTgxODtzdHJva2Utd2lkdGg6MS4wOyIvPjxsaW5lIHN0eWxlPSJzdHJva2U6IzE4MTgxODtzdHJva2Utd2lkdGg6MS4wOyIgeDE9IjM3OC41ODIiIHgyPSIzODAuMzc4NyIgeTE9IjY1My43OTE3IiB5Mj0iNjYzLjYyOSIvPjxsaW5lIHN0eWxlPSJzdHJva2U6IzE4MTgxODtzdHJva2Utd2lkdGg6MS4wOyIgeDE9IjM3OC41ODIiIHgyPSIzNjkuNjQxMyIgeTE9IjY1My43OTE3IiB5Mj0iNjU4LjI3MSIvPjxsaW5lIHN0eWxlPSJzdHJva2U6IzE4MTgxODtzdHJva2Utd2lkdGg6MS4wOyIgeDE9IjM3OC41ODIiIHgyPSIzNzUuMDEiIHkxPSI2NTMuNzkxNyIgeTI9IjY2MC45NSIvPjxsaW5lIHN0eWxlPSJzdHJva2U6IzE4MTgxODtzdHJva2Utd2lkdGg6MS4wOyIgeDE9IjM4My4wNTQxIiB4Mj0iMzc1Ljg5NTkiIHkxPSI2NTMuNzg4MiIgeTI9IjY1MC4yMTYyIi8+PC9nPjwhLS1saW5rIENvbnRlbnQgdG8gQ29udGVudFR5cGUtLT48ZyBpZD0ibGlua19Db250ZW50X0NvbnRlbnRUeXBlIj48cGF0aCBjb2RlTGluZT0iMTM3IiBkPSJNNzEwLjksNTcxLjA4IEM3MjEsNTkxLjUyIDczNi4yMiw2MjIuMzMgNzQ5Ljk1LDY1MC4xMiAiIGZpbGw9Im5vbmUiIGlkPSJDb250ZW50LXRvLUNvbnRlbnRUeXBlIiBzdHlsZT0ic3Ryb2tlOiMxODE4MTg7c3Ryb2tlLXdpZHRoOjEuMDsiLz48cG9seWdvbiBmaWxsPSJub25lIiBwb2ludHM9Ijc1Ni4zMiw2NDcuMjMsNzU4LjkxLDY2OC4yNiw3NDMuNzcsNjUzLjQzLDc1Ni4zMiw2NDcuMjMiIHN0eWxlPSJzdHJva2U6IzE4MTgxODtzdHJva2Utd2lkdGg6MS4wOyIvPjwvZz48IS0tbGluayBRdWl6IHRvIEFzc2lnbm1lbnQtLT48ZyBpZD0ibGlua19RdWl6X0Fzc2lnbm1lbnQiPjxwYXRoIGNvZGVMaW5lPSIxMzgiIGQ9Ik0zNDkuNSw1NzEuMDggQzM0OS41LDU4OS4yIDM0OS41LDYxNS40NyAzNDkuNSw2NDAuNTYgIiBmaWxsPSJub25lIiBpZD0iUXVpei10by1Bc3NpZ25tZW50IiBzdHlsZT0ic3Ryb2tlOiMxODE4MTg7c3Ryb2tlLXdpZHRoOjEuMDsiLz48cG9seWdvbiBmaWxsPSJub25lIiBwb2ludHM9IjM1Ni41LDY0MC43LDM0OS41LDY2MC43LDM0Mi41LDY0MC43LDM1Ni41LDY0MC43IiBzdHlsZT0ic3Ryb2tlOiMxODE4MTg7c3Ryb2tlLXdpZHRoOjEuMDsiLz48L2c+PCEtLWxpbmsgQ291cnNlIHRvIEZvcnVtLS0+PGcgaWQ9ImxpbmtfQ291cnNlX0ZvcnVtIj48cGF0aCBjb2RlTGluZT0iMTM5IiBkPSJNNjkyLjYyLDM5NS43NyBDNzIzLjQ4LDQyOC42OCA3NTcuMzEsNDY0Ljc1IDc4NC4wOCw0OTMuMyAiIGZpbGw9Im5vbmUiIGlkPSJDb3Vyc2UtdG8tRm9ydW0iIHN0eWxlPSJzdHJva2U6IzE4MTgxODtzdHJva2Utd2lkdGg6MS4wOyIvPjxwb2x5Z29uIGZpbGw9Im5vbmUiIHBvaW50cz0iNzg5LjE5LDQ4OC41Miw3OTcuNzcsNTA3LjksNzc4Ljk4LDQ5OC4wOSw3ODkuMTksNDg4LjUyIiBzdHlsZT0ic3Ryb2tlOiMxODE4MTg7c3Ryb2tlLXdpZHRoOjEuMDsiLz48L2c+PCEtLWxpbmsgVXNlciB0byBGb3J1bS0tPjxnIGlkPSJsaW5rX1VzZXJfRm9ydW0iPjxwYXRoIGNvZGVMaW5lPSIxNDAiIGQ9Ik0xMDA0LjEsNDMzLjE5IEM5NzIuMTgsNDUyLjkgOTM5LjgzLDQ3My4yNiA5MDkuNSw0OTMgQzkwNC4zOCw0OTYuMzMgODk5LjExLDQ5OS44NCA4OTMuODQsNTAzLjQgIiBmaWxsPSJub25lIiBpZD0iVXNlci10by1Gb3J1bSIgc3R5bGU9InN0cm9rZTojMTgxODE4O3N0cm9rZS13aWR0aDoxLjA7Ii8+PGxpbmUgc3R5bGU9InN0cm9rZTojMTgxODE4O3N0cm9rZS13aWR0aDoxLjA7IiB4MT0iODkzLjc5NDMiIHgyPSI4OTAuNTU1IiB5MT0iNTAzLjQzIiB5Mj0iNTEyLjg5MDgiLz48bGluZSBzdHlsZT0ic3Ryb2tlOiMxODE4MTg7c3Ryb2tlLXdpZHRoOjEuMDsiIHgxPSI4OTMuNzk0MyIgeDI9Ijg4My44MDUiIHkxPSI1MDMuNDMiIHkyPSI1MDIuOTY5MiIvPjxsaW5lIHN0eWxlPSJzdHJva2U6IzE4MTgxODtzdHJva2Utd2lkdGg6MS4wOyIgeDE9Ijg5My43OTQzIiB4Mj0iODg3LjE4IiB5MT0iNTAzLjQzIiB5Mj0iNTA3LjkzIi8+PGxpbmUgc3R5bGU9InN0cm9rZTojMTgxODE4O3N0cm9rZS13aWR0aDoxLjA7IiB4MT0iODk3LjY5OCIgeDI9Ijg5My4xOTc5IiB5MT0iNTA1LjYxMjEiIHkyPSI0OTguOTk3OCIvPjwvZz48IS0tbGluayBDb3Vyc2UgdG8gUHJvZ3Jlc3MtLT48ZyBpZD0ibGlua19Db3Vyc2VfUHJvZ3Jlc3MiPjxwYXRoIGNvZGVMaW5lPSIxNDEiIGQ9Ik03NzIuMTUsMzk1LjYgQzgyOS4xNiw0MjYuOTYgODkxLjQsNDYxLjIxIDk0Mi4wOCw0ODkuMSAiIGZpbGw9Im5vbmUiIGlkPSJDb3Vyc2UtdG8tUHJvZ3Jlc3MiIHN0eWxlPSJzdHJva2U6IzE4MTgxODtzdHJva2Utd2lkdGg6MS4wOyIvPjxsaW5lIHN0eWxlPSJzdHJva2U6IzE4MTgxODtzdHJva2Utd2lkdGg6MS4wOyIgeDE9Ijk0Mi4xNDMzIiB4Mj0iOTUyLjA0NTYiIHkxPSI0ODkuMTI5MiIgeTI9IjQ4Ny43MzUiLz48bGluZSBzdHlsZT0ic3Ryb2tlOiMxODE4MTg7c3Ryb2tlLXdpZHRoOjEuMDsiIHgxPSI5NDIuMTQzMyIgeDI9Ijk0Ni4yNTQ0IiB5MT0iNDg5LjEyOTIiIHkyPSI0OTguMjQ1Ii8+PGxpbmUgc3R5bGU9InN0cm9rZTojMTgxODE4O3N0cm9rZS13aWR0aDoxLjA7IiB4MT0iOTQyLjE0MzMiIHgyPSI5NDkuMTUiIHkxPSI0ODkuMTI5MiIgeTI9IjQ5Mi45OSIvPjxsaW5lIHN0eWxlPSJzdHJva2U6IzE4MTgxODtzdHJva2Utd2lkdGg6MS4wOyIgeDE9Ijk0Mi4zMjIiIHgyPSI5MzguNDYxMiIgeTE9IjQ4NC42NjA2IiB5Mj0iNDkxLjY2NzMiLz48L2c+PCEtLWxpbmsgQ291cnNlIHRvIE1vZHVsZS0tPjxnIGlkPSJsaW5rX0NvdXJzZV9Nb2R1bGUiPjxwYXRoIGNvZGVMaW5lPSIxNDMiIGQ9Ik01ODcuNTQsMzk1Ljc3IEM1ODAuNDEsNDI4LjE5IDU3Mi42LDQ2My42OCA1NjYuMzcsNDkyLjAyICIgZmlsbD0ibm9uZSIgaWQ9IkNvdXJzZS10by1Nb2R1bGUiIHN0eWxlPSJzdHJva2U6IzE4MTgxODtzdHJva2Utd2lkdGg6MS4wOyIvPjxsaW5lIHN0eWxlPSJzdHJva2U6IzE4MTgxODtzdHJva2Utd2lkdGg6MS4wOyIgeDE9IjU2Ni4yODQzIiB4Mj0iNTcwLjQzMDYiIHkxPSI0OTIuMzg1OCIgeTI9IjUwMS40ODU3Ii8+PGxpbmUgc3R5bGU9InN0cm9rZTojMTgxODE4O3N0cm9rZS13aWR0aDoxLjA7IiB4MT0iNTY2LjI4NDMiIHgyPSI1NTguNzA5NCIgeTE9IjQ5Mi4zODU4IiB5Mj0iNDk4LjkxNDMiLz48bGluZSBzdHlsZT0ic3Ryb2tlOiMxODE4MTg7c3Ryb2tlLXdpZHRoOjEuMDsiIHgxPSI1NjYuMjg0MyIgeDI9IjU2NC41NyIgeTE9IjQ5Mi4zODU4IiB5Mj0iNTAwLjIiLz48bGluZSBzdHlsZT0ic3Ryb2tlOiMxODE4MTg7c3Ryb2tlLXdpZHRoOjEuMDsiIHgxPSI1NzAuNjE5OSIgeDI9IjU2Mi44MDU3IiB5MT0iNDkxLjI4OTQiIHkyPSI0ODkuNTc1MiIvPjwvZz48IS0tbGluayBGb3J1bSB0byBQb3N0LS0+PGcgaWQ9ImxpbmtfRm9ydW1fUG9zdCI+PHBhdGggY29kZUxpbmU9IjE0NCIgZD0iTTg4My4yMSw1ODYuMDIgQzg5MS43MSw1OTEuNTMgOTAwLjY1LDU5Ni43NiA5MDkuNSw2MDEgQzEwMTIuMjcsNjUwLjI5IDExNDAuOTYsNjgyLjc0IDEyMjAuNDQsNjk5LjczICIgZmlsbD0ibm9uZSIgaWQ9IkZvcnVtLXRvLVBvc3QiIHN0eWxlPSJzdHJva2U6IzE4MTgxODtzdHJva2Utd2lkdGg6MS4wOyIvPjxsaW5lIHN0eWxlPSJzdHJva2U6IzE4MTgxODtzdHJva2Utd2lkdGg6MS4wOyIgeDE9IjEyMjAuNjIzNCIgeDI9IjEyMjkuNjkyNSIgeTE9IjY5OS43NzMzIiB5Mj0iNjk1LjU2MDEiLz48bGluZSBzdHlsZT0ic3Ryb2tlOiMxODE4MTg7c3Ryb2tlLXdpZHRoOjEuMDsiIHgxPSIxMjIwLjYyMzQiIHgyPSIxMjI3LjIwNzUiIHkxPSI2OTkuNzczMyIgeTI9IjcwNy4yOTk5Ii8+PGxpbmUgc3R5bGU9InN0cm9rZTojMTgxODE4O3N0cm9rZS13aWR0aDoxLjA7IiB4MT0iMTIyMC42MjM0IiB4Mj0iMTIyOC40NSIgeTE9IjY5OS43NzMzIiB5Mj0iNzAxLjQzIi8+PGxpbmUgc3R5bGU9InN0cm9rZTojMTgxODE4O3N0cm9rZS13aWR0aDoxLjA7IiB4MT0iMTIxOS40OTUxIiB4Mj0iMTIxNy44Mzg0IiB5MT0iNjk1LjQ0NTgiIHkyPSI3MDMuMjcyNCIvPjwvZz48IS0tbGluayBRdWVzdGlvbiB0byBRdWl6LS0+PGcgaWQ9ImxpbmtfUXVlc3Rpb25fUXVpeiI+PHBhdGggY29kZUxpbmU9IjE0NiIgZD0iTTI3NC40NiwzMjguMTEgQzI4OS40OSwzNzEuNzQgMzIyLjA0LDQ2Ni4yNyAzMzguOSw1MTUuMjMgIiBmaWxsPSJub25lIiBpZD0iUXVlc3Rpb24tdG8tUXVpeiIgc3R5bGU9InN0cm9rZTojMTgxODE4O3N0cm9rZS13aWR0aDoxLjA7Ii8+PGxpbmUgc3R5bGU9InN0cm9rZTojMTgxODE4O3N0cm9rZS13aWR0aDoxLjA7IiB4MT0iMzM4Ljk3MTgiIHgyPSIzNDcuMjQ0NyIgeTE9IjUxNS4zOTM3IiB5Mj0iNTIxLjAxMTMiLz48bGluZSBzdHlsZT0ic3Ryb2tlOiMxODE4MTg7c3Ryb2tlLXdpZHRoOjEuMDsiIHgxPSIzMzguOTcxOCIgeDI9IjMzNS44OTUzIiB5MT0iNTE1LjM5MzciIHkyPSI1MjQuOTA4NyIvPjxsaW5lIHN0eWxlPSJzdHJva2U6IzE4MTgxODtzdHJva2Utd2lkdGg6MS4wOyIgeDE9IjMzOC45NzE4IiB4Mj0iMzQxLjU3IiB5MT0iNTE1LjM5MzciIHkyPSI1MjIuOTYiLz48bGluZSBzdHlsZT0ic3Ryb2tlOiMxODE4MTg7c3Ryb2tlLXdpZHRoOjEuMDsiIHgxPSIzNDIuMTA1NCIgeDI9IjMzNC41MzkiIHkxPSI1MTIuMjAzIiB5Mj0iNTE0LjgwMTIiLz48L2c+PCEtLWxpbmsgUXVlc3Rpb24gdG8gQXNzaWdubWVudC0tPjxnIGlkPSJsaW5rX1F1ZXN0aW9uX0Fzc2lnbm1lbnQiPjxwYXRoIGNvZGVMaW5lPSIxNDciIGQ9Ik0yNjcuMDEsMzI4LjA3IEMyNjguNjEsMzc4LjQ0IDI3NS4xMiw1MDEuNzMgMzAxLjUsNjAxIEMzMDYuMTMsNjE4LjQyIDMxMi45Myw2MzYuNjYgMzE5Ljk4LDY1My4yNyAiIGZpbGw9Im5vbmUiIGlkPSJRdWVzdGlvbi10by1Bc3NpZ25tZW50IiBzdHlsZT0ic3Ryb2tlOiMxODE4MTg7c3Ryb2tlLXdpZHRoOjEuMDsiLz48bGluZSBzdHlsZT0ic3Ryb2tlOiMxODE4MTg7c3Ryb2tlLXdpZHRoOjEuMDsiIHgxPSIzMjAuMDQ4IiB4Mj0iMzI4LjcyODIiIHkxPSI2NTMuNDQ1NyIgeTI9IjY1OC40MTEiLz48bGluZSBzdHlsZT0ic3Ryb2tlOiMxODE4MTg7c3Ryb2tlLXdpZHRoOjEuMDsiIHgxPSIzMjAuMDQ4IiB4Mj0iMzE3LjcxMTgiIHkxPSI2NTMuNDQ1NyIgeTI9IjY2My4xNjkiLz48bGluZSBzdHlsZT0ic3Ryb2tlOiMxODE4MTg7c3Ryb2tlLXdpZHRoOjEuMDsiIHgxPSIzMjAuMDQ4IiB4Mj0iMzIzLjIyIiB5MT0iNjUzLjQ0NTciIHkyPSI2NjAuNzkiLz48bGluZSBzdHlsZT0ic3Ryb2tlOiMxODE4MTg7c3Ryb2tlLXdpZHRoOjEuMDsiIHgxPSIzMjIuOTI3MSIgeDI9IjMxNS41ODI4IiB5MT0iNjUwLjAyMzciIHkyPSI2NTMuMTk1NyIvPjwvZz48IS0tU1JDPVtiTExSSnppbTU3eEZocDFGQW5nOHpzWWdiQksxOGhNYmpFY2NGSTR0VGJEQklQcFAzV1dPX3RzLW5hdWxHdGpmVlJ4dXRCenBWODdtWlpHT2Y4aXlvdC0xZWVBU0huU01wMVB2a2hmRDlZYVdaUzFpMW1sU1Zxay1oX0RMQ2lhMXQ3QjFPMjZZdzBrT2NjLXU0S0dHcDA1aWE1VmJhTk1vdVBZMXptWTBRejM5T3VQWVRRY042clpaNkFtNThxc2ZtTFI2ejQ4UDZlMnVYZ0dRODNsMms1V1NBaWs0Wmk2TXFIc2Z5OThLZWNGM0p1bk00Ylo5Tm9zTTU1T3kxWkYyblJTeFVIdkJ6QWpDSzV3aGljUDJFeVJuZ0QxX0NKM1lQR29zTEVoM0hqX2J0Uk9jOGs2U2I0cWpBcEUyX0o0NjdaeEd3YmU0MUx3UUU0VDdnTHFUdk5LcmhDWTFrTThGY244bFJJNTczTnZQN1hKckdBNzQ4WWRzMTN6WjVIbVZOVGVRMUUwT2wxVXFEZGRTdDgwNDhUYnFzaTBBNDhIWFJEZUMwb0NWcUtWYUU5MldjWklNMTUyVDdHbHliUW9IbkVlQUdIclBJMC00YjM3NXZwZGlvaHNtS1BmNlowRFpRejRYNk9Fcm44cnFtYW9nRXVsSE1LQzZpTlFDS2NYNjRoeVE0V2ZYTlozSWdqOENTOXpEN0FIZ2s2czNpNDR4X2JiblI1dEJrTWZ5bWJlb2R0dnR2RXFERXdyN0FIZFM0eXp6eV9HUmt3eFZDSVdaeGxram5TeXdoSXg5ajAxX3ZHQk5XcFJ0M2JvbFUtMkpnZEx1QVdTVzFrZXRjQUNyaEpoYlV5Smp1UFlfZG1JeHJkUTRaalZRNjMxSlpSdURMa3MyQ0NwMVBsOFFRWXpPM1JLa0dlcnBwTVZ1MUpBcWY0SnRPaVh4RVZHYm12blJhd3FMM3pVYTZSMjBYY3hfTUFYa0FvbW1jYkZLTEpxUFoxSm9zSTNNTHdzNVZ0VWM5dnhiTjYzaGJoQWtqZ1Bzd2RwVUtmMGt2T3VTaEpvNkFoTEM2dlAzem1VZlFwVW55SG1zNFJVS0VSREMyX3pKRnBLOTNNUUlVaVFHNmVUZEliMzhSQl9PN0JLelNmT3F2cFdIYTRhRGQ2RUpFZVVzSlp5VHVLZ0J0UU9wTzQ3THl1UGVqdk5sc1NWV1lVdmd6STFsdmd3Ri1NamhfQ3hJSVJ2UGZWQnE4dmtjM185Xy1aM1BwNkx5OWFvZnlqWFhoa0JsVFVRUk1QdWpQLWRKdkZ1WGNvWlR6VnQzQWR6QTVra1Z3TWhXY1U0QXdnN1JhdlA3LWY2dWxseHBSZnZTQnhlZjJBMFd1LTJVdjRuZUhWU2hDaS1CSGRJTld4VjRXLXZEeThZdGVzT3dpaGpVMHV4ajhRUE13bTA4OGhKdDVKdUVJbm1mOU9DRVJaaVpPeWpiN3VnSEdwU2RRakQzdUpxcHN2NFBvckZMd2hMU0d1RXlYZjJGekl5MF0tLT48L2c+PC9zdmc+;" vertex="1" parent="1">
            <mxGeometry x="-820" y="20" width="2480" height="1026.71" as="geometry" />
          </mxCell>
        </UserObject>
      </root>
    </mxGraphModel>
  </diagram>
</mxfile>
